<svg xmlns="http://www.w3.org/2000/svg" xmlns:xlink="http://www.w3.org/1999/xlink" version="1.1" x="0px" y="0px" viewBox="0 0 100 100" enable-background="new 0 0 100 100" xml:space="preserve"><path fill="#bbbbbb" d="M87.045,20.91L51.248,56.707c-2.195,2.195-5.76,2.195-7.955,0s-2.195-5.76,0-7.955L79.09,12.955L71.135,5L35.338,40.797  c-5.179,5.179-6.217,12.888-3.244,19.155L19.128,72.918c-0.924-0.245-1.877-0.418-2.878-0.418C10.037,72.5,5,77.537,5,83.75  C5,89.963,10.037,95,16.25,95S27.5,89.963,27.5,83.75c0-1.001-0.173-1.954-0.418-2.878l12.966-12.966  c6.267,2.973,13.976,1.934,19.155-3.244L95,28.865L87.045,20.91z"/></svg>