<svg id="svg" version="1.1" xmlns="http://www.w3.org/2000/svg" xmlns:xlink="http://www.w3.org/1999/xlink" width="400" height="152.20700152207002" viewBox="0, 0, 400,152.20700152207002"><g id="svgg"><path id="path0" d="M54.250 52.906 C 49.107 53.920,46.833 56.793,46.833 62.277 L 46.833 64.333 44.824 64.333 C 41.784 64.333,40.669 65.009,40.667 66.850 C 40.666 68.680,41.955 69.500,44.834 69.500 L 46.783 69.500 46.873 79.393 C 46.954 88.399,46.989 89.342,47.257 89.908 C 48.145 91.779,51.088 91.960,52.264 90.215 C 52.670 89.612,52.833 85.268,52.833 75.056 L 52.833 69.500 55.875 69.496 C 60.185 69.491,61.275 68.917,61.135 66.726 C 61.005 64.689,60.254 64.342,55.958 64.337 L 52.833 64.333 52.834 62.542 C 52.836 58.349,54.470 57.052,58.651 57.924 C 60.991 58.413,62.333 57.531,62.333 55.506 C 62.333 53.376,58.354 52.096,54.250 52.906 M223.250 53.034 C 222.518 53.288,221.682 54.152,221.513 54.827 C 221.198 56.087,221.157 89.396,221.469 90.016 C 222.662 92.388,226.891 91.856,227.244 89.291 C 227.549 87.071,227.084 54.525,226.740 54.054 C 226.020 53.066,224.464 52.611,223.250 53.034 M132.500 57.800 C 131.449 58.311,131.167 59.173,131.167 61.869 L 131.167 64.167 129.303 64.167 C 126.412 64.167,125.481 64.736,125.364 66.575 C 125.239 68.533,126.318 69.167,129.773 69.167 L 131.333 69.167 131.333 77.632 C 131.333 87.005,131.367 87.370,132.381 88.883 C 134.347 91.817,141.062 92.403,143.228 89.829 C 144.018 88.890,143.713 87.291,142.637 86.735 C 142.116 86.465,141.880 86.471,140.250 86.798 C 138.750 87.099,137.489 86.505,137.167 85.346 C 137.069 84.991,137.001 81.601,137.001 76.958 L 137.000 69.167 139.343 69.167 C 143.256 69.167,144.470 68.501,144.285 66.459 C 144.112 64.545,143.347 64.169,139.625 64.168 L 137.167 64.167 137.167 61.942 C 137.167 58.989,136.905 58.243,135.691 57.736 C 134.920 57.414,133.224 57.447,132.500 57.800 M81.000 63.425 C 78.740 63.908,76.094 65.595,74.645 67.476 L 74.214 68.035 74.130 66.864 C 73.912 63.821,70.345 62.654,68.593 65.053 C 67.928 65.964,68.054 89.202,68.729 90.204 C 69.578 91.464,71.490 91.826,72.782 90.970 C 73.956 90.193,73.947 90.260,74.064 82.250 C 74.175 74.595,74.208 74.276,75.081 72.387 C 76.571 69.163,80.265 67.307,82.938 68.440 C 84.472 69.091,86.516 68.588,87.069 67.424 C 88.443 64.528,85.355 62.493,81.000 63.425 M103.750 63.274 C 102.744 63.431,100.729 64.049,99.964 64.436 C 99.532 64.655,99.097 64.833,98.997 64.833 C 98.831 64.833,97.122 65.910,96.630 66.324 C 96.513 66.423,96.201 66.665,95.938 66.863 C 92.062 69.776,90.382 76.769,92.186 82.488 C 94.844 90.917,105.842 94.533,114.913 89.961 C 118.304 88.252,119.327 86.047,117.348 84.713 C 116.237 83.965,115.130 84.176,113.021 85.539 C 107.147 89.334,98.045 86.118,97.227 79.958 L 97.121 79.167 107.269 79.166 C 118.241 79.165,118.277 79.162,119.218 78.248 C 120.212 77.283,120.162 74.879,119.095 72.333 C 118.845 71.737,118.582 71.025,118.510 70.750 C 118.214 69.620,116.311 67.309,114.833 66.284 C 114.421 65.998,113.950 65.640,113.786 65.490 C 113.397 65.130,110.522 63.915,109.250 63.573 C 108.266 63.308,104.754 63.117,103.750 63.274 M248.833 63.515 C 241.926 64.400,236.737 69.118,235.819 75.347 C 235.705 76.119,235.540 76.843,235.453 76.958 C 235.032 77.506,235.780 81.780,236.586 83.433 C 236.814 83.901,237.000 84.362,237.000 84.459 C 237.000 85.263,240.021 88.407,242.031 89.697 C 246.928 92.838,255.152 92.902,259.534 89.832 C 260.056 89.466,260.532 89.167,260.592 89.167 C 260.804 89.167,263.024 87.011,263.434 86.406 C 263.664 86.068,263.969 85.674,264.111 85.532 C 264.449 85.194,265.405 83.085,265.853 81.689 C 266.347 80.150,266.505 76.129,266.104 75.324 C 265.955 75.026,265.833 74.651,265.833 74.490 C 265.833 73.904,265.009 71.786,264.359 70.699 C 261.270 65.537,255.148 62.705,248.833 63.515 M288.362 63.495 C 285.334 63.968,282.749 65.549,281.021 67.983 L 280.500 68.717 280.500 67.477 C 280.500 64.096,276.699 62.599,275.085 65.346 C 274.746 65.924,274.294 87.114,274.579 89.089 C 274.889 91.235,277.298 92.241,279.363 91.087 C 280.718 90.330,280.695 90.494,280.566 82.273 C 280.467 75.956,280.486 74.957,280.722 74.046 C 281.878 69.584,285.635 67.137,289.497 68.332 C 291.889 69.073,293.583 68.149,293.583 66.105 C 293.583 64.131,291.370 63.024,288.362 63.495 M310.000 63.577 C 301.639 64.947,296.466 72.703,298.164 81.321 C 299.786 89.548,309.469 94.221,318.790 91.274 C 323.271 89.857,325.620 87.533,324.692 85.435 C 323.922 83.695,321.913 83.557,319.813 85.098 C 314.084 89.304,305.341 86.415,303.771 79.798 L 303.663 79.345 314.040 79.298 L 324.417 79.250 325.223 78.861 C 326.371 78.307,326.574 77.752,326.433 75.558 C 326.282 73.203,325.986 72.305,324.521 69.769 C 324.091 69.024,322.172 66.833,321.950 66.833 C 321.868 66.833,321.182 66.421,320.424 65.917 C 317.290 63.832,313.558 62.994,310.000 63.577 M348.588 63.509 C 345.625 63.970,342.795 65.704,341.337 67.954 C 340.751 68.857,340.667 68.744,340.667 67.061 C 340.667 64.047,337.193 62.792,335.484 65.189 C 334.814 66.127,334.503 88.075,335.132 89.914 C 335.833 91.959,339.480 92.132,340.524 90.169 C 340.812 89.628,340.833 89.072,340.833 82.075 C 340.833 75.650,340.872 74.429,341.102 73.655 C 342.341 69.480,346.055 67.180,349.727 68.314 C 352.202 69.078,353.831 68.179,353.833 66.047 C 353.834 64.091,351.650 63.034,348.588 63.509 M196.673 63.685 C 194.229 64.057,191.720 65.252,189.849 66.934 L 189.000 67.698 189.000 66.901 C 189.000 64.015,185.301 62.796,183.709 65.159 L 183.333 65.716 183.333 77.158 C 183.333 85.009,183.278 88.656,183.156 88.777 C 182.738 89.196,183.034 100.004,183.484 100.728 C 184.555 102.451,187.612 102.424,188.787 100.681 C 189.164 100.121,189.167 100.079,189.167 94.309 C 189.167 90.547,189.225 88.500,189.333 88.500 C 189.425 88.500,189.500 88.568,189.500 88.651 C 189.500 89.045,192.404 90.730,194.011 91.269 C 198.724 92.851,203.277 92.167,207.194 89.291 C 209.283 87.757,211.798 84.021,211.925 82.265 C 211.952 81.890,212.049 81.246,212.142 80.833 C 214.316 71.121,206.287 62.219,196.673 63.685 M253.374 68.489 C 257.802 69.622,260.245 72.931,260.203 77.739 C 260.119 87.193,248.133 90.502,242.772 82.550 C 241.840 81.168,241.490 79.017,241.647 75.642 C 241.869 70.872,248.020 67.120,253.374 68.489 M315.036 68.664 C 315.652 68.854,316.214 69.110,316.286 69.233 C 316.358 69.356,316.717 69.610,317.083 69.798 C 318.444 70.495,320.167 72.925,320.167 74.146 L 320.167 74.500 311.982 74.500 L 303.797 74.500 303.905 74.042 C 304.931 69.674,310.150 67.152,315.036 68.664 M107.833 68.580 C 109.288 68.965,111.082 69.958,111.898 70.831 C 112.304 71.264,112.748 71.662,112.885 71.715 C 113.192 71.833,113.833 73.498,113.833 74.179 L 113.833 74.679 105.764 74.631 C 101.325 74.605,97.644 74.533,97.583 74.472 C 97.522 74.411,97.628 74.008,97.819 73.576 C 98.010 73.144,98.167 72.703,98.167 72.595 C 98.167 72.487,98.577 71.901,99.078 71.294 C 101.027 68.930,104.771 67.770,107.833 68.580 M200.151 68.590 C 205.300 69.804,208.201 75.548,206.401 80.967 C 205.013 85.144,200.026 87.875,195.833 86.752 C 195.237 86.593,194.464 86.405,194.114 86.335 C 191.531 85.817,189.012 82.136,188.730 78.466 C 188.222 71.858,193.747 67.080,200.151 68.590 " stroke="none" fill="#1c1c1c" fill-rule="evenodd"></path><path id="path1" d="M159.250 24.589 C 155.850 25.127,151.982 27.679,149.849 30.792 C 146.133 36.211,146.255 43.125,150.168 48.917 C 150.602 49.558,151.505 50.908,152.175 51.917 C 152.846 52.925,153.643 54.045,153.947 54.405 C 154.251 54.765,154.500 55.150,154.500 55.260 C 154.500 55.369,154.609 55.550,154.743 55.661 C 154.877 55.772,155.525 56.681,156.184 57.681 C 156.843 58.682,157.433 59.500,157.496 59.500 C 157.559 59.500,157.715 59.706,157.842 59.958 C 158.165 60.597,159.558 62.500,159.702 62.500 C 159.767 62.500,160.126 62.949,160.499 63.498 C 161.946 65.629,163.200 65.503,164.848 63.062 C 165.326 62.353,165.936 61.542,166.202 61.261 C 166.828 60.601,168.500 58.347,168.500 58.164 C 168.500 58.087,168.599 57.925,168.720 57.804 C 168.905 57.619,170.138 55.875,171.790 53.462 C 171.995 53.162,172.509 52.429,172.931 51.833 C 175.052 48.843,176.848 45.692,177.208 44.333 C 178.679 38.778,177.571 33.302,174.225 29.592 C 170.281 25.218,165.458 23.607,159.250 24.589 M163.862 33.576 C 168.474 34.777,170.185 40.296,167.000 43.696 C 164.705 46.146,161.550 46.440,158.821 44.460 C 158.283 44.069,157.841 43.698,157.838 43.633 C 157.836 43.569,157.599 43.170,157.313 42.746 C 154.393 38.419,158.794 32.256,163.862 33.576 M152.128 63.773 C 151.190 64.045,150.163 65.450,150.173 66.450 C 150.181 67.359,150.163 67.335,154.973 72.831 C 157.384 75.585,159.333 77.945,159.303 78.074 C 159.274 78.203,157.337 80.460,155.000 83.090 C 150.377 88.290,150.348 88.327,150.339 89.133 C 150.321 90.872,152.790 92.134,154.491 91.255 C 154.751 91.120,156.712 88.983,158.848 86.505 C 160.983 84.027,162.789 82.000,162.860 82.000 C 162.932 82.000,163.461 82.549,164.037 83.221 C 170.574 90.845,171.420 91.667,172.736 91.667 C 173.454 91.667,175.034 91.041,175.009 90.767 C 175.004 90.711,175.150 90.386,175.333 90.044 C 176.094 88.624,176.049 88.545,171.478 83.318 C 169.519 81.077,167.567 78.833,167.140 78.330 L 166.363 77.415 170.611 72.583 C 175.590 66.918,175.360 67.223,175.375 66.248 C 175.396 64.833,174.374 63.924,172.755 63.920 C 171.200 63.915,171.548 63.586,166.049 70.250 C 164.537 72.083,163.246 73.603,163.182 73.628 C 163.117 73.653,161.269 71.609,159.074 69.087 C 154.575 63.917,153.765 63.298,152.128 63.773 " stroke="none" fill="#e34c4c" fill-rule="evenodd"></path><path id="path2" d="M265.734 23.505 C 262.571 23.949,261.173 25.374,261.032 28.297 C 260.900 31.044,262.353 33.167,264.366 33.167 L 265.000 33.167 265.000 34.083 C 265.000 34.587,264.980 35.000,264.956 35.000 C 264.931 35.000,263.225 34.851,261.164 34.668 C 252.948 33.941,251.294 34.419,249.469 38.047 C 249.274 38.434,248.861 39.143,248.550 39.622 C 248.240 40.102,247.759 40.927,247.482 41.456 C 246.672 43.003,246.568 43.164,245.978 43.773 C 244.506 45.292,242.346 46.171,238.083 46.987 C 237.075 47.179,234.375 47.711,232.083 48.168 C 229.792 48.624,227.643 49.039,227.308 49.090 C 226.973 49.141,225.060 49.524,223.058 49.942 C 221.055 50.360,218.935 50.767,218.346 50.848 C 217.758 50.928,215.733 51.325,213.846 51.731 C 211.960 52.136,210.072 52.515,209.651 52.573 C 208.559 52.724,208.175 52.798,205.750 53.324 C 204.558 53.582,202.721 53.953,201.667 54.149 C 198.816 54.678,197.335 54.967,194.750 55.498 C 193.467 55.761,191.704 56.102,190.833 56.256 C 189.963 56.409,187.938 56.818,186.333 57.165 C 184.729 57.512,183.053 57.838,182.609 57.891 C 182.165 57.943,180.890 58.181,179.776 58.419 C 177.155 58.978,175.222 59.364,171.833 60.005 C 170.321 60.291,168.437 60.674,167.648 60.856 L 166.212 61.186 165.065 62.860 C 163.161 65.640,161.706 65.750,160.228 63.227 C 159.748 62.408,159.773 62.414,158.219 62.733 C 157.594 62.862,156.693 63.011,156.217 63.066 C 153.796 63.346,153.299 63.594,154.312 64.020 C 154.805 64.226,155.909 65.379,159.053 68.972 L 163.152 73.656 165.108 71.286 C 171.487 63.555,171.202 63.833,172.742 63.833 C 174.622 63.833,175.744 65.063,175.424 66.771 C 175.317 67.341,174.837 67.916,168.360 75.236 C 167.474 76.236,166.691 77.153,166.619 77.273 C 166.498 77.475,168.808 80.234,173.452 85.434 C 175.728 87.982,176.167 89.044,175.400 90.140 C 174.984 90.734,175.102 90.725,178.270 89.944 C 179.909 89.540,181.584 89.159,181.992 89.097 C 183.260 88.906,183.167 89.853,183.167 77.221 C 183.167 64.599,183.109 65.276,184.262 64.396 C 186.189 62.927,189.167 64.354,189.167 66.747 L 189.167 67.338 190.380 66.342 C 196.868 61.017,206.908 63.191,210.961 70.798 C 212.488 73.665,212.943 78.250,212.053 81.810 C 211.920 82.343,212.454 82.268,217.083 81.105 C 218.367 80.783,219.717 80.467,220.083 80.404 C 221.464 80.167,221.333 81.535,221.334 67.286 C 221.335 55.427,221.355 54.554,221.630 54.137 C 222.797 52.368,225.683 52.265,226.789 53.953 C 227.061 54.368,227.090 55.305,227.167 66.493 L 227.250 78.583 228.000 78.542 C 228.412 78.519,230.250 78.135,232.083 77.689 L 235.417 76.879 235.619 75.566 C 237.584 62.817,255.247 58.762,263.489 69.167 C 264.618 70.593,265.613 72.790,266.070 74.866 C 266.152 75.241,266.452 75.453,267.876 76.142 C 270.011 77.175,272.114 78.584,273.818 80.124 C 274.147 80.422,274.471 80.665,274.537 80.666 C 274.603 80.666,274.678 77.258,274.703 73.091 L 274.750 65.516 275.412 64.838 C 277.502 62.698,280.327 63.941,280.500 67.075 L 280.583 68.583 281.034 67.817 C 284.114 62.578,294.590 61.615,293.669 66.656 C 293.359 68.349,291.471 69.134,289.479 68.397 C 286.789 67.402,283.508 68.797,281.849 71.641 C 280.647 73.701,280.596 74.007,280.589 79.250 L 280.583 83.917 281.342 83.880 C 281.847 83.855,282.700 83.562,283.891 83.005 C 284.875 82.544,285.763 82.167,285.864 82.167 C 285.965 82.167,286.806 81.819,287.732 81.394 C 288.659 80.969,289.792 80.489,290.250 80.328 C 290.708 80.167,291.738 79.728,292.538 79.351 C 293.338 78.975,294.051 78.667,294.121 78.667 C 294.192 78.667,295.042 78.317,296.011 77.889 L 297.772 77.112 298.042 75.431 C 299.748 64.802,312.232 59.601,320.741 65.973 C 321.204 66.320,321.664 66.652,321.762 66.711 C 321.861 66.769,322.630 66.596,323.471 66.325 C 327.248 65.111,329.622 65.917,332.114 69.261 C 332.787 70.163,334.687 72.007,334.844 71.910 C 334.931 71.856,335.000 70.478,335.001 68.782 C 335.001 65.402,335.109 65.001,336.193 64.342 C 338.411 62.993,340.833 64.476,340.833 67.183 L 340.833 68.383 341.309 67.733 C 344.346 63.586,351.081 61.854,353.493 64.600 C 355.331 66.695,352.534 69.591,349.784 68.441 C 346.273 66.975,341.998 69.892,341.059 74.396 C 340.928 75.027,340.842 75.560,340.868 75.581 C 341.327 75.948,343.734 76.393,345.631 76.463 C 349.561 76.607,352.828 75.777,356.650 73.664 C 357.962 72.939,360.411 70.748,361.667 69.176 C 361.988 68.774,362.343 68.351,362.456 68.237 C 362.644 68.047,362.948 67.511,363.963 65.583 C 366.444 60.868,365.595 53.972,361.859 48.500 C 359.544 45.109,355.459 42.893,349.542 41.819 C 348.419 41.615,347.500 41.389,347.500 41.316 C 347.500 41.243,347.581 40.804,347.680 40.342 L 347.861 39.500 348.555 39.496 C 353.236 39.472,354.128 31.600,349.625 30.061 C 348.731 29.756,345.724 29.640,344.550 29.866 C 339.739 30.791,339.389 37.841,344.083 39.286 L 345.000 39.569 345.000 40.454 C 345.000 41.284,344.976 41.335,344.625 41.264 C 344.419 41.222,343.650 41.144,342.917 41.091 C 342.183 41.038,340.308 40.884,338.750 40.749 C 337.192 40.613,334.942 40.455,333.750 40.397 C 331.184 40.272,331.461 40.416,331.682 39.319 C 331.855 38.460,331.889 38.416,332.390 38.404 C 335.608 38.324,337.732 34.252,336.167 31.162 C 334.206 27.290,326.674 27.593,325.173 31.605 C 324.138 34.371,325.482 37.490,328.011 38.191 L 328.917 38.442 328.968 39.246 L 329.020 40.050 327.885 39.954 C 327.261 39.902,324.313 39.655,321.333 39.406 C 315.225 38.896,315.663 39.011,315.785 37.958 C 315.877 37.167,315.877 37.167,316.518 37.167 C 320.254 37.167,322.107 31.682,319.343 28.806 C 317.775 27.174,313.773 26.848,311.221 28.145 C 307.706 29.931,308.219 35.845,311.986 36.952 L 313.000 37.250 313.000 37.958 L 313.000 38.667 312.042 38.665 C 311.134 38.663,309.245 38.516,302.508 37.923 C 300.908 37.782,299.575 37.667,299.546 37.667 C 299.517 37.667,299.537 37.494,299.590 37.282 C 299.710 36.803,299.804 36.308,299.821 36.062 C 299.828 35.958,300.236 35.841,300.743 35.799 C 303.069 35.606,304.417 33.774,304.417 30.804 C 304.417 29.205,304.378 28.977,304.039 28.554 C 303.832 28.295,303.583 27.930,303.486 27.742 C 303.029 26.855,300.810 26.017,298.886 26.006 C 294.491 25.981,292.301 28.289,292.995 32.217 C 293.358 34.273,294.350 35.334,296.292 35.745 C 296.815 35.856,296.833 35.888,296.833 36.691 C 296.833 37.404,296.792 37.510,296.542 37.439 C 296.381 37.393,294.563 37.238,292.500 37.095 C 290.438 36.952,287.576 36.750,286.141 36.647 L 283.532 36.458 283.669 36.021 C 283.744 35.780,283.851 35.377,283.906 35.125 C 283.985 34.766,284.105 34.664,284.462 34.654 C 287.528 34.567,289.628 30.377,288.132 27.332 C 286.288 23.576,278.385 23.871,277.261 27.738 C 276.319 30.978,277.577 33.783,280.292 34.494 C 281.171 34.724,281.435 36.167,280.598 36.167 C 280.268 36.167,275.443 35.765,271.750 35.429 C 271.292 35.388,270.185 35.301,269.292 35.237 C 267.503 35.109,267.519 35.123,267.837 33.977 C 268.000 33.391,268.037 33.367,268.961 33.255 C 270.919 33.018,271.952 31.943,272.434 29.643 C 273.281 25.594,270.300 22.864,265.734 23.505 M150.250 64.272 C 149.700 64.402,148.537 64.624,147.667 64.764 C 144.808 65.223,144.243 65.390,144.307 65.758 C 144.772 68.411,143.792 69.167,139.887 69.167 L 137.158 69.167 137.204 77.430 L 137.250 85.694 137.781 86.169 C 138.486 86.798,139.550 86.961,140.606 86.601 C 142.577 85.930,144.073 87.088,143.745 89.031 C 143.193 92.298,134.706 92.363,132.375 89.117 C 131.276 87.586,131.267 87.502,131.206 77.897 L 131.150 69.211 128.617 69.123 C 126.234 69.040,125.914 69.068,123.250 69.586 C 121.692 69.890,120.079 70.184,119.667 70.241 C 118.468 70.404,118.432 70.471,118.930 71.596 C 120.011 74.036,120.350 76.812,119.696 77.870 C 118.870 79.205,119.232 79.167,107.528 79.167 L 97.160 79.167 97.258 79.625 C 97.735 81.858,98.908 83.746,100.667 85.108 C 103.876 87.594,110.051 87.645,113.358 85.213 C 114.827 84.133,116.038 83.893,117.163 84.459 C 121.585 86.680,114.492 92.017,107.083 92.044 C 97.364 92.079,90.518 85.433,91.431 76.851 C 91.543 75.793,91.541 75.787,91.147 75.873 C 90.929 75.922,89.138 76.276,87.167 76.662 C 85.196 77.047,82.008 77.693,80.083 78.097 C 78.158 78.500,76.246 78.869,75.833 78.915 C 75.421 78.962,74.881 79.042,74.634 79.095 L 74.184 79.189 74.134 84.386 C 74.085 89.406,74.071 89.603,73.717 90.173 C 72.626 91.927,69.871 91.979,68.594 90.270 C 68.269 89.835,68.247 89.555,68.201 85.139 L 68.152 80.467 67.367 80.566 C 66.936 80.621,65.533 80.886,64.250 81.157 C 62.967 81.427,61.129 81.803,60.167 81.992 C 59.204 82.182,57.179 82.581,55.667 82.880 L 52.917 83.423 52.833 86.587 C 52.778 88.688,52.679 89.874,52.539 90.118 C 51.515 91.910,48.398 91.967,47.308 90.214 C 46.950 89.637,46.912 89.366,46.860 87.041 C 46.829 85.643,46.745 84.535,46.674 84.578 C 46.484 84.696,42.734 85.479,40.250 85.920 C 39.058 86.131,36.808 86.569,35.250 86.893 C 33.692 87.217,32.042 87.530,31.583 87.590 C 30.838 87.688,28.014 88.276,25.250 88.911 C 24.700 89.037,23.650 89.228,22.917 89.334 C 22.183 89.441,20.046 89.853,18.167 90.250 C 16.287 90.648,14.450 91.014,14.083 91.064 C 13.195 91.186,11.476 91.528,8.250 92.224 C 6.783 92.541,5.246 92.841,4.833 92.891 C 3.867 93.009,0.177 93.768,0.075 93.869 C 0.032 93.912,0.017 98.242,0.040 103.492 L 0.083 113.037 1.203 111.710 C 1.819 110.980,2.464 110.208,2.637 109.995 L 2.952 109.606 3.809 110.329 C 4.867 111.221,4.869 111.178,3.705 112.514 C 3.180 113.117,2.131 114.335,1.375 115.221 L 0.000 116.832 0.000 123.666 C 0.000 128.974,0.046 130.500,0.206 130.500 C 0.319 130.500,1.350 130.281,2.497 130.012 C 3.645 129.744,6.458 129.100,8.750 128.582 C 11.042 128.063,14.492 127.274,16.417 126.828 C 18.342 126.382,20.367 125.931,20.917 125.824 C 21.467 125.718,23.229 125.309,24.833 124.915 C 26.438 124.521,28.087 124.147,28.500 124.082 C 28.912 124.017,30.262 123.715,31.500 123.411 C 32.737 123.106,34.350 122.738,35.083 122.594 C 35.817 122.449,38.029 121.952,40.000 121.490 C 41.971 121.028,44.071 120.543,44.667 120.413 C 45.262 120.283,46.800 119.919,48.083 119.605 C 49.367 119.290,50.679 118.998,51.000 118.956 C 51.321 118.914,53.196 118.497,55.167 118.029 C 57.137 117.562,59.313 117.060,60.000 116.914 C 60.688 116.768,62.375 116.385,63.750 116.062 C 65.125 115.740,66.587 115.410,67.000 115.329 C 67.412 115.248,69.100 114.848,70.750 114.442 C 72.400 114.035,74.275 113.614,74.917 113.506 C 75.558 113.398,77.208 113.022,78.583 112.670 C 79.958 112.319,81.346 111.995,81.667 111.951 C 82.352 111.857,82.213 111.889,86.201 110.922 C 87.916 110.507,89.438 110.167,89.583 110.167 C 89.729 110.167,91.326 109.802,93.132 109.356 C 94.939 108.910,96.754 108.494,97.167 108.432 C 97.579 108.370,99.421 107.950,101.261 107.500 C 103.100 107.049,104.937 106.630,105.344 106.569 C 105.751 106.508,107.396 106.138,109.000 105.747 C 110.604 105.356,112.217 104.987,112.583 104.926 C 112.950 104.865,114.787 104.451,116.667 104.006 C 121.238 102.922,127.126 101.576,128.667 101.264 C 129.354 101.124,131.004 100.742,132.333 100.415 C 133.662 100.088,135.128 99.755,135.590 99.675 C 136.051 99.595,137.851 99.193,139.590 98.782 C 141.328 98.370,143.162 97.951,143.667 97.850 C 144.171 97.749,146.046 97.325,147.833 96.909 C 151.157 96.135,153.292 95.645,156.458 94.928 C 157.444 94.705,160.050 94.108,162.250 93.602 C 164.450 93.096,167.000 92.520,167.917 92.322 C 168.833 92.124,170.010 91.847,170.532 91.706 L 171.481 91.451 170.910 91.017 C 170.596 90.778,168.680 88.671,166.653 86.333 C 164.626 83.996,162.919 82.070,162.859 82.055 C 162.762 82.029,162.014 82.877,159.250 86.152 C 154.762 91.468,154.386 91.791,152.886 91.622 C 151.385 91.453,149.998 89.980,150.252 88.824 C 150.387 88.211,150.998 87.467,155.710 82.175 C 157.706 79.934,159.319 78.043,159.294 77.973 C 159.270 77.903,158.642 77.149,157.898 76.298 C 148.893 65.990,149.216 66.524,150.879 64.720 C 151.244 64.324,151.477 64.008,151.396 64.017 C 151.316 64.026,150.800 64.141,150.250 64.272 M249.567 68.325 C 246.322 68.829,243.490 70.950,242.167 73.865 C 241.373 75.613,241.453 75.621,246.750 74.330 C 251.059 73.279,254.093 73.021,257.958 73.377 C 259.551 73.523,259.549 73.527,258.680 72.226 C 256.852 69.489,252.918 67.805,249.567 68.325 M196.917 68.441 C 192.023 69.119,188.828 72.714,188.835 77.535 C 188.842 82.591,192.238 86.893,195.506 85.987 C 196.142 85.811,196.819 85.667,197.010 85.667 C 197.201 85.667,198.877 85.292,200.734 84.833 C 202.591 84.375,204.232 84.000,204.381 84.000 C 204.940 84.000,206.156 81.754,206.591 79.917 C 208.071 73.675,202.954 67.605,196.917 68.441 M309.774 68.589 C 306.959 69.295,305.066 71.049,304.069 73.873 C 303.811 74.606,303.921 74.619,305.167 74.001 C 305.487 73.842,306.050 73.616,306.417 73.499 C 306.783 73.382,307.721 72.991,308.500 72.630 C 309.279 72.269,310.367 71.801,310.917 71.590 C 311.467 71.379,312.367 70.999,312.917 70.745 C 313.467 70.491,314.401 70.089,314.993 69.850 C 315.585 69.612,316.072 69.347,316.076 69.261 C 316.107 68.582,311.682 68.110,309.774 68.589 M111.558 71.843 C 110.994 71.916,110.057 72.090,109.475 72.228 C 106.996 72.818,103.708 73.500,103.327 73.503 C 103.102 73.504,101.904 73.723,100.667 73.988 L 98.417 74.471 106.138 74.485 L 113.860 74.500 113.748 73.958 C 113.598 73.232,112.885 71.661,112.718 71.688 C 112.644 71.699,112.122 71.769,111.558 71.843 M145.810 92.098 C 146.006 92.610,146.165 93.117,146.164 93.223 C 146.160 93.409,139.556 95.961,139.446 95.819 C 139.261 95.578,138.678 93.767,138.759 93.684 C 138.887 93.554,145.025 91.189,145.269 91.177 C 145.370 91.171,145.614 91.586,145.810 92.098 M49.539 95.792 C 49.581 96.410,49.604 96.934,49.589 96.955 C 49.536 97.031,42.499 97.555,42.441 97.487 C 42.407 97.448,42.335 96.910,42.280 96.292 L 42.179 95.167 42.715 95.153 C 43.009 95.146,44.262 95.043,45.500 94.926 C 46.737 94.808,48.135 94.702,48.606 94.689 L 49.461 94.667 49.539 95.792 M61.667 95.833 L 61.667 97.000 58.083 97.000 L 54.500 97.000 54.500 95.833 L 54.500 94.667 58.083 94.667 L 61.667 94.667 61.667 95.833 M70.750 95.336 C 74.259 95.599,73.942 95.456,73.835 96.733 C 73.716 98.150,73.993 98.078,70.094 97.711 C 66.098 97.336,66.480 97.513,66.612 96.096 L 66.718 94.964 67.484 95.056 C 67.905 95.106,69.375 95.232,70.750 95.336 M134.335 96.257 C 134.587 97.592,134.991 97.348,131.200 98.152 C 127.079 99.025,127.441 99.065,127.209 97.714 C 126.979 96.368,126.503 96.658,130.250 95.865 C 134.446 94.977,134.087 94.943,134.335 96.257 M37.412 96.922 C 37.562 97.723,37.569 98.045,37.435 98.089 C 37.208 98.162,34.301 98.721,32.199 99.095 C 31.347 99.247,30.597 99.319,30.533 99.256 C 30.255 98.979,30.045 97.139,30.281 97.048 C 30.629 96.915,37.075 95.711,37.144 95.766 C 37.177 95.793,37.297 96.313,37.412 96.922 M82.728 96.779 L 86.039 97.231 85.928 98.324 C 85.781 99.756,86.061 99.695,82.169 99.140 C 78.245 98.581,78.519 98.721,78.712 97.375 C 78.891 96.134,78.470 96.197,82.728 96.779 M122.369 98.500 C 122.435 99.093,122.435 99.627,122.369 99.687 C 122.227 99.817,115.375 100.434,115.279 100.326 C 114.956 99.956,115.041 97.999,115.381 97.988 C 115.584 97.981,117.100 97.840,118.750 97.674 C 122.570 97.290,122.227 97.212,122.369 98.500 M95.458 98.021 C 97.745 98.188,98.166 98.260,98.165 98.484 C 98.164 98.630,98.116 99.144,98.059 99.625 L 97.954 100.500 96.685 100.485 C 93.719 100.451,90.749 100.103,90.764 99.792 C 90.772 99.631,90.790 99.078,90.806 98.562 L 90.833 97.624 91.792 97.723 C 92.319 97.778,93.969 97.912,95.458 98.021 M25.481 99.355 C 25.869 100.503,25.853 100.584,25.216 100.744 C 24.967 100.806,23.528 101.305,22.018 101.852 C 20.509 102.399,19.189 102.814,19.085 102.774 C 18.896 102.701,18.219 100.713,18.348 100.609 C 18.501 100.486,24.604 98.371,24.860 98.353 C 25.056 98.339,25.236 98.630,25.481 99.355 M110.181 98.402 C 110.219 98.440,110.225 98.965,110.194 99.569 L 110.138 100.667 106.569 100.667 L 103.000 100.667 103.000 99.500 L 103.000 98.333 106.556 98.333 C 108.511 98.333,110.142 98.364,110.181 98.402 M14.077 103.678 C 14.420 104.234,14.674 104.713,14.642 104.743 C 14.610 104.774,13.214 105.629,11.541 106.644 L 8.498 108.490 8.109 107.870 C 7.447 106.817,7.297 106.469,7.443 106.330 C 7.545 106.233,13.309 102.714,13.435 102.673 C 13.445 102.669,13.733 103.122,14.077 103.678 " stroke="none" fill="#c3c3c3" fill-rule="evenodd"></path><path id="path3" d="M223.000 52.955 C 222.237 53.245,221.325 54.329,221.349 54.917 C 221.359 55.142,221.411 55.086,221.510 54.746 C 221.688 54.136,222.566 53.272,223.250 53.034 C 223.525 52.938,223.637 52.860,223.500 52.860 C 223.362 52.860,223.137 52.902,223.000 52.955 M225.499 53.099 C 225.819 53.238,226.268 53.516,226.498 53.717 L 226.914 54.083 226.583 53.691 C 226.223 53.266,225.480 52.829,225.133 52.840 C 225.014 52.843,225.179 52.960,225.499 53.099 M196.756 63.509 C 195.641 63.682,193.928 64.151,194.032 64.254 C 194.069 64.291,194.456 64.214,194.893 64.082 C 196.955 63.462,198.671 63.422,202.083 63.917 C 202.358 63.957,202.171 63.883,201.667 63.753 C 200.452 63.439,197.993 63.316,196.756 63.509 M248.083 63.442 C 246.662 63.743,245.496 64.052,245.557 64.113 C 245.597 64.153,246.077 64.070,246.623 63.928 C 247.169 63.787,248.133 63.604,248.766 63.523 C 249.677 63.406,249.760 63.375,249.167 63.374 C 248.754 63.373,248.267 63.404,248.083 63.442 M252.959 63.517 C 253.985 63.637,254.992 63.849,256.453 64.256 C 256.616 64.301,256.522 64.231,256.244 64.100 C 255.535 63.766,253.320 63.329,252.465 63.355 C 251.923 63.371,252.042 63.411,252.959 63.517 M287.750 63.421 C 287.658 63.455,287.257 63.566,286.858 63.669 C 286.459 63.771,286.164 63.886,286.201 63.923 C 286.238 63.960,286.565 63.908,286.926 63.807 C 287.288 63.707,287.958 63.568,288.417 63.499 C 289.218 63.380,289.225 63.375,288.583 63.367 C 288.217 63.363,287.842 63.387,287.750 63.421 M291.047 63.515 C 291.394 63.597,291.900 63.779,292.172 63.919 C 292.444 64.060,292.667 64.132,292.667 64.079 C 292.667 63.901,291.252 63.341,290.833 63.354 C 290.526 63.363,290.582 63.406,291.047 63.515 M309.583 63.506 C 309.268 63.591,309.484 63.606,310.167 63.548 C 310.762 63.497,311.281 63.428,311.319 63.395 C 311.446 63.283,310.093 63.370,309.583 63.506 M314.102 63.509 C 314.662 63.582,315.439 63.727,315.827 63.832 C 316.216 63.936,316.569 63.987,316.612 63.944 C 316.744 63.811,314.390 63.332,313.717 63.354 C 313.231 63.371,313.321 63.407,314.102 63.509 M347.833 63.503 C 347.574 63.588,347.795 63.604,348.417 63.547 C 348.967 63.496,349.448 63.427,349.486 63.394 C 349.621 63.277,348.245 63.368,347.833 63.503 M351.385 63.516 C 351.734 63.598,352.165 63.743,352.343 63.839 C 352.521 63.934,352.667 63.968,352.667 63.914 C 352.667 63.749,351.533 63.332,351.130 63.350 C 350.887 63.361,350.978 63.421,351.385 63.516 M346.417 63.911 C 345.773 64.205,346.072 64.210,346.833 63.917 C 347.154 63.793,347.304 63.690,347.167 63.687 C 347.029 63.684,346.692 63.785,346.417 63.911 M186.694 63.991 C 187.030 64.056,187.499 64.237,187.736 64.392 C 187.973 64.547,188.167 64.634,188.167 64.585 C 188.167 64.360,187.033 63.836,186.583 63.853 C 186.111 63.871,186.118 63.878,186.694 63.991 M277.294 63.951 C 277.501 63.991,277.801 63.990,277.960 63.948 C 278.120 63.906,277.950 63.874,277.583 63.875 C 277.217 63.877,277.086 63.911,277.294 63.951 M307.417 64.077 C 306.773 64.372,307.072 64.376,307.833 64.083 C 308.154 63.960,308.304 63.856,308.167 63.854 C 308.029 63.851,307.692 63.951,307.417 64.077 M337.542 63.948 C 337.702 63.990,337.965 63.990,338.125 63.948 C 338.285 63.906,338.154 63.872,337.833 63.872 C 337.512 63.872,337.381 63.906,337.542 63.948 M276.052 64.292 C 275.877 64.452,275.817 64.530,275.918 64.465 C 276.019 64.400,276.285 64.274,276.509 64.184 C 276.767 64.081,276.816 64.017,276.643 64.011 C 276.493 64.005,276.227 64.131,276.052 64.292 M278.500 64.119 C 278.637 64.170,278.900 64.281,279.083 64.365 C 279.411 64.516,279.411 64.514,279.093 64.259 C 278.915 64.117,278.653 64.006,278.510 64.013 C 278.285 64.025,278.284 64.039,278.500 64.119 M336.167 64.375 C 335.865 64.581,335.508 64.938,335.374 65.167 C 335.178 65.501,335.206 65.488,335.511 65.104 C 335.721 64.840,336.198 64.485,336.571 64.316 C 336.944 64.146,337.130 64.006,336.983 64.004 C 336.836 64.002,336.469 64.169,336.167 64.375 M353.312 64.547 C 354.016 65.400,354.050 66.634,353.396 67.597 C 353.156 67.951,353.086 68.136,353.241 68.008 C 354.214 67.200,354.292 65.462,353.396 64.539 L 352.791 63.917 353.312 64.547 M183.883 64.708 C 183.158 65.505,183.167 65.352,183.167 77.206 C 183.167 86.085,183.121 88.652,182.958 88.834 C 182.781 89.032,182.794 89.034,183.042 88.847 C 183.314 88.640,183.333 87.887,183.333 77.219 C 183.333 65.351,183.325 65.505,184.050 64.708 C 184.238 64.502,184.354 64.333,184.308 64.333 C 184.262 64.333,184.071 64.502,183.883 64.708 M339.500 64.385 C 339.500 64.414,339.744 64.658,340.042 64.927 L 340.583 65.417 340.094 64.875 C 339.638 64.370,339.500 64.257,339.500 64.385 M279.701 64.758 C 279.857 64.942,280.098 65.354,280.236 65.672 C 280.374 65.990,280.490 66.153,280.493 66.033 C 280.503 65.708,280.062 64.924,279.719 64.657 C 279.431 64.433,279.430 64.438,279.701 64.758 M188.592 65.240 C 188.754 65.487,188.930 66.138,188.985 66.688 L 189.083 67.688 189.667 67.053 C 190.237 66.431,190.238 66.428,189.708 66.907 L 189.167 67.396 189.167 66.776 C 189.167 66.094,188.814 65.111,188.500 64.916 C 188.389 64.848,188.431 64.994,188.592 65.240 M192.000 65.162 C 191.679 65.334,191.154 65.705,190.833 65.986 C 190.419 66.349,190.588 66.275,191.417 65.732 C 192.954 64.723,193.122 64.558,192.000 65.162 M304.720 65.331 C 304.246 65.604,303.813 65.898,303.758 65.987 C 303.669 66.131,305.416 65.139,305.633 64.923 C 305.822 64.734,305.552 64.855,304.720 65.331 M343.733 65.306 C 342.972 65.860,341.014 67.921,340.969 68.214 C 340.953 68.326,340.891 67.817,340.833 67.083 L 340.728 65.750 340.697 67.097 C 340.660 68.737,340.751 68.860,341.332 67.954 C 341.783 67.251,343.379 65.662,344.167 65.131 C 344.396 64.977,344.538 64.847,344.483 64.842 C 344.428 64.837,344.091 65.046,343.733 65.306 M205.167 65.066 C 205.167 65.106,205.506 65.328,205.921 65.560 C 206.335 65.791,206.630 65.909,206.576 65.821 C 206.468 65.646,205.167 64.949,205.167 65.066 M242.542 65.428 C 241.571 66.009,241.643 66.123,242.625 65.561 C 243.572 65.019,243.598 65.000,243.403 65.002 C 243.319 65.002,242.931 65.194,242.542 65.428 M259.250 65.583 C 261.274 66.835,263.124 68.627,264.112 70.292 C 264.584 71.088,264.806 71.252,264.431 70.528 C 263.505 68.737,260.124 65.590,258.569 65.071 C 258.393 65.012,258.700 65.243,259.250 65.583 M283.495 65.275 C 282.901 65.671,281.698 66.834,281.282 67.417 C 281.085 67.692,281.447 67.386,282.087 66.738 C 282.727 66.089,283.438 65.437,283.667 65.288 C 283.896 65.139,284.044 65.014,283.995 65.009 C 283.947 65.004,283.722 65.124,283.495 65.275 M319.167 65.048 C 319.167 65.086,319.555 65.358,320.030 65.654 C 320.505 65.949,320.810 66.089,320.707 65.965 C 320.510 65.728,319.167 64.928,319.167 65.048 M239.902 67.430 L 238.917 68.360 239.958 67.476 C 240.531 66.990,241.000 66.572,241.000 66.546 C 241.000 66.420,240.810 66.573,239.902 67.430 M208.417 67.500 C 208.868 67.958,209.275 68.333,209.321 68.333 C 209.367 68.333,209.035 67.958,208.583 67.500 C 208.132 67.042,207.725 66.667,207.679 66.667 C 207.633 66.667,207.965 67.042,208.417 67.500 M293.500 66.911 C 293.500 67.045,293.265 67.439,292.979 67.786 L 292.458 68.417 293.062 67.794 C 293.581 67.259,293.855 66.667,293.583 66.667 C 293.537 66.667,293.500 66.777,293.500 66.911 M301.910 67.542 L 301.083 68.417 301.958 67.590 C 302.440 67.135,302.833 66.741,302.833 66.715 C 302.833 66.590,302.679 66.729,301.910 67.542 M143.573 68.375 L 143.083 68.917 143.625 68.427 C 143.923 68.158,144.167 67.914,144.167 67.885 C 144.167 67.757,144.029 67.870,143.573 68.375 M311.795 68.287 C 312.094 68.325,312.544 68.324,312.795 68.286 C 313.045 68.248,312.800 68.217,312.250 68.218 C 311.700 68.219,311.495 68.250,311.795 68.287 M198.542 68.448 C 198.702 68.490,198.965 68.490,199.125 68.448 C 199.285 68.406,199.154 68.372,198.833 68.372 C 198.512 68.372,198.381 68.406,198.542 68.448 M209.752 69.083 C 210.420 70.011,210.604 70.183,210.232 69.530 C 210.059 69.226,209.772 68.851,209.594 68.697 C 209.407 68.534,209.473 68.696,209.752 69.083 M344.491 68.979 C 344.083 69.242,343.450 69.784,343.083 70.182 C 342.466 70.854,342.485 70.845,343.343 70.058 C 343.852 69.591,344.509 69.085,344.801 68.933 C 345.094 68.782,345.333 68.623,345.333 68.579 C 345.333 68.447,345.260 68.482,344.491 68.979 M142.333 69.000 C 141.990 69.110,141.975 69.136,142.250 69.148 C 142.433 69.155,142.696 69.089,142.833 69.000 C 143.125 68.811,142.923 68.811,142.333 69.000 M173.406 69.375 L 172.917 69.917 173.458 69.427 C 173.756 69.158,174.000 68.914,174.000 68.885 C 174.000 68.757,173.862 68.870,173.406 69.375 M201.014 68.897 C 201.184 69.052,202.833 69.830,202.833 69.756 C 202.833 69.662,201.242 68.833,201.061 68.833 C 200.997 68.833,200.976 68.862,201.014 68.897 M246.303 69.255 C 245.874 69.479,245.480 69.730,245.428 69.815 C 245.353 69.937,247.057 69.104,247.319 68.890 C 247.554 68.699,246.965 68.911,246.303 69.255 M255.489 69.419 C 256.079 69.737,256.754 70.168,256.989 70.378 C 257.805 71.106,258.091 71.246,257.339 70.550 C 256.643 69.905,254.896 68.828,254.560 68.837 C 254.481 68.839,254.899 69.101,255.489 69.419 M283.733 69.311 C 283.376 69.573,282.896 70.003,282.667 70.266 C 282.405 70.565,282.529 70.496,283.000 70.080 C 283.412 69.715,283.938 69.289,284.167 69.134 C 284.396 68.978,284.538 68.847,284.483 68.842 C 284.428 68.837,284.091 69.048,283.733 69.311 M307.636 69.255 C 307.207 69.479,306.814 69.730,306.762 69.815 C 306.686 69.937,308.390 69.104,308.653 68.890 C 308.887 68.699,308.298 68.911,307.636 69.255 M131.244 77.500 C 131.244 82.129,131.265 84.023,131.292 81.708 C 131.318 79.394,131.318 75.606,131.292 73.292 C 131.265 70.977,131.244 72.871,131.244 77.500 M137.077 77.083 C 137.077 81.483,137.099 83.259,137.125 81.030 C 137.151 78.801,137.151 75.201,137.125 73.030 C 137.099 70.859,137.077 72.683,137.077 77.083 M193.240 69.411 C 193.062 69.546,192.992 69.656,193.083 69.656 C 193.175 69.656,193.396 69.546,193.574 69.411 C 193.751 69.277,193.822 69.167,193.730 69.167 C 193.639 69.167,193.418 69.277,193.240 69.411 M237.496 70.283 C 237.223 70.713,237.000 71.138,237.000 71.227 C 237.000 71.430,236.999 71.431,237.636 70.375 C 238.291 69.289,238.175 69.212,237.496 70.283 M244.333 70.689 L 243.583 71.369 244.289 70.839 C 244.903 70.378,245.298 69.989,245.135 70.005 C 245.107 70.008,244.746 70.316,244.333 70.689 M305.899 70.542 C 305.388 71.095,304.790 71.884,305.110 71.583 C 305.466 71.248,306.537 70.000,306.469 70.000 C 306.430 70.000,306.174 70.244,305.899 70.542 M172.240 70.708 L 171.750 71.250 172.292 70.760 C 172.590 70.491,172.833 70.248,172.833 70.219 C 172.833 70.090,172.696 70.203,172.240 70.708 M191.217 71.046 C 190.759 71.530,190.296 72.111,190.188 72.338 L 189.990 72.750 190.285 72.333 C 190.448 72.104,190.948 71.523,191.398 71.042 C 191.847 70.560,192.178 70.167,192.132 70.167 C 192.086 70.167,191.674 70.562,191.217 71.046 M203.667 70.385 C 203.667 70.414,203.910 70.658,204.208 70.927 L 204.750 71.417 204.260 70.875 C 203.804 70.370,203.667 70.257,203.667 70.385 M299.167 71.375 C 298.902 71.948,298.642 72.642,298.590 72.917 C 298.538 73.192,298.636 73.041,298.808 72.581 C 298.979 72.122,299.282 71.428,299.480 71.040 C 299.678 70.651,299.797 70.333,299.745 70.333 C 299.692 70.333,299.432 70.802,299.167 71.375 M118.512 70.917 C 118.512 71.008,118.619 71.271,118.750 71.500 C 118.881 71.729,118.988 71.842,118.988 71.750 C 118.988 71.658,118.881 71.396,118.750 71.167 C 118.619 70.938,118.512 70.825,118.512 70.917 M282.043 71.042 C 281.807 71.339,281.475 72.000,281.561 72.000 C 281.601 72.000,281.789 71.737,281.978 71.417 C 282.322 70.834,282.354 70.649,282.043 71.042 M211.183 71.333 C 211.177 71.379,211.361 71.904,211.592 72.500 C 211.823 73.096,211.966 73.358,211.910 73.083 C 211.814 72.613,211.208 71.153,211.183 71.333 M243.116 72.042 C 242.664 72.653,242.359 73.180,242.610 72.917 C 242.919 72.592,243.682 71.500,243.600 71.500 C 243.554 71.500,243.337 71.744,243.116 72.042 M258.744 72.325 C 259.068 72.806,259.333 73.280,259.333 73.378 C 259.333 73.476,259.380 73.509,259.437 73.452 C 259.562 73.327,258.793 71.979,258.421 71.670 C 258.275 71.549,258.421 71.844,258.744 72.325 M113.116 72.248 C 113.268 72.568,113.423 72.800,113.459 72.763 C 113.535 72.687,113.029 71.667,112.915 71.667 C 112.873 71.667,112.963 71.928,113.116 72.248 M304.492 72.516 C 304.300 72.892,304.172 73.228,304.207 73.262 C 304.242 73.297,304.434 72.990,304.633 72.580 C 305.087 71.645,304.964 71.590,304.492 72.516 M341.527 72.424 C 341.248 73.037,341.301 73.167,341.603 72.610 C 341.744 72.350,341.828 72.106,341.790 72.068 C 341.752 72.030,341.634 72.190,341.527 72.424 M205.886 73.489 C 206.175 74.124,206.440 74.615,206.475 74.580 C 206.552 74.503,205.551 72.333,205.439 72.333 C 205.395 72.333,205.597 72.853,205.886 73.489 M265.523 73.167 C 265.523 73.304,265.588 73.567,265.667 73.750 C 265.757 73.960,265.810 73.991,265.810 73.833 C 265.810 73.696,265.745 73.433,265.667 73.250 C 265.576 73.040,265.523 73.009,265.523 73.167 M235.779 74.482 C 235.717 74.790,235.675 75.201,235.685 75.396 C 235.695 75.591,235.770 75.412,235.851 75.000 C 235.932 74.587,235.974 74.176,235.944 74.086 C 235.915 73.996,235.840 74.174,235.779 74.482 M168.740 74.708 L 168.250 75.250 168.792 74.760 C 169.090 74.491,169.333 74.248,169.333 74.219 C 169.333 74.090,169.196 74.203,168.740 74.708 M188.977 75.033 C 188.664 76.252,188.715 79.520,189.062 80.500 C 189.215 80.930,189.287 81.036,189.233 80.750 C 188.759 78.266,188.727 77.113,189.084 75.428 C 189.375 74.053,189.300 73.775,188.977 75.033 M265.833 74.573 C 265.833 74.797,265.895 75.018,265.970 75.065 C 266.045 75.111,266.074 74.928,266.034 74.658 C 265.947 74.062,265.833 74.015,265.833 74.573 M102.042 74.625 C 104.219 74.651,107.781 74.651,109.958 74.625 C 112.135 74.599,110.354 74.577,106.000 74.577 C 101.646 74.577,99.865 74.599,102.042 74.625 M280.542 75.250 C 280.544 75.617,280.578 75.747,280.618 75.540 C 280.658 75.332,280.656 75.032,280.615 74.873 C 280.573 74.714,280.540 74.883,280.542 75.250 M157.333 75.719 C 157.333 75.748,157.577 75.991,157.875 76.260 L 158.417 76.750 157.927 76.208 C 157.471 75.703,157.333 75.590,157.333 75.719 M235.487 76.375 C 235.437 76.733,235.463 76.937,235.547 76.853 C 235.627 76.773,235.666 76.492,235.633 76.229 C 235.578 75.788,235.566 75.800,235.487 76.375 M206.883 77.667 C 206.883 78.171,206.915 78.377,206.953 78.125 C 206.991 77.873,206.991 77.460,206.953 77.208 C 206.915 76.956,206.883 77.162,206.883 77.667 M91.385 77.917 C 91.386 78.467,91.417 78.672,91.454 78.372 C 91.491 78.072,91.490 77.622,91.452 77.372 C 91.414 77.122,91.384 77.367,91.385 77.917 M157.906 79.708 L 157.417 80.250 157.958 79.760 C 158.256 79.491,158.500 79.248,158.500 79.219 C 158.500 79.090,158.362 79.203,157.906 79.708 M167.833 79.219 C 167.833 79.248,168.077 79.491,168.375 79.760 L 168.917 80.250 168.427 79.708 C 167.971 79.203,167.833 79.090,167.833 79.219 M74.074 84.250 C 74.074 87.000,74.097 88.148,74.125 86.802 C 74.153 85.456,74.153 83.206,74.125 81.802 C 74.097 80.398,74.074 81.500,74.074 84.250 M91.590 80.611 C 91.636 81.085,91.786 81.760,91.923 82.111 C 92.112 82.596,92.145 82.629,92.061 82.250 C 92.000 81.975,91.850 81.300,91.728 80.750 L 91.506 79.750 91.590 80.611 M97.341 80.455 C 97.331 80.711,97.854 82.035,97.933 81.955 C 97.966 81.923,97.847 81.526,97.670 81.073 C 97.494 80.621,97.345 80.342,97.341 80.455 M68.240 85.083 C 68.240 87.558,68.263 88.594,68.291 87.385 C 68.320 86.176,68.320 84.151,68.291 82.885 C 68.263 81.619,68.240 82.608,68.240 85.083 M206.167 81.202 C 206.167 81.252,206.053 81.564,205.914 81.896 C 205.776 82.228,205.700 82.500,205.746 82.500 C 205.877 82.500,206.347 81.292,206.252 81.197 C 206.205 81.150,206.167 81.152,206.167 81.202 M170.333 82.052 C 170.333 82.081,170.577 82.325,170.875 82.594 L 171.417 83.083 170.927 82.542 C 170.471 82.037,170.333 81.923,170.333 82.052 M98.792 83.417 C 98.982 83.692,99.423 84.179,99.772 84.500 C 100.279 84.966,100.243 84.899,99.593 84.167 C 98.498 82.935,98.386 82.830,98.792 83.417 M52.736 86.583 C 52.736 88.233,52.761 88.886,52.791 88.033 C 52.821 87.181,52.821 85.831,52.791 85.033 C 52.760 84.236,52.735 84.933,52.736 86.583 M153.740 84.375 L 153.250 84.917 153.792 84.427 C 154.090 84.158,154.333 83.914,154.333 83.885 C 154.333 83.757,154.196 83.870,153.740 84.375 M191.083 84.318 C 191.431 84.721,192.667 85.743,192.667 85.629 C 192.667 85.593,192.235 85.197,191.708 84.749 C 191.181 84.300,190.900 84.107,191.083 84.318 M115.544 84.286 C 115.797 84.325,116.172 84.324,116.377 84.284 C 116.582 84.244,116.375 84.213,115.917 84.214 C 115.458 84.216,115.291 84.248,115.544 84.286 M114.392 84.499 C 114.195 84.578,113.988 84.718,113.931 84.810 C 113.846 84.947,114.748 84.589,114.986 84.391 C 115.111 84.287,114.758 84.351,114.392 84.499 M117.083 84.528 C 117.267 84.629,117.570 84.833,117.758 84.981 C 117.946 85.129,117.888 85.044,117.630 84.792 C 117.372 84.540,117.069 84.336,116.956 84.338 C 116.843 84.341,116.900 84.426,117.083 84.528 M46.899 86.917 C 46.899 88.200,46.926 88.703,46.957 88.034 C 46.989 87.366,46.989 86.316,46.957 85.701 C 46.925 85.086,46.899 85.633,46.899 86.917 M93.423 85.458 C 93.585 85.710,93.818 86.064,93.941 86.243 C 94.299 86.768,96.025 88.496,96.577 88.882 C 96.855 89.076,96.472 88.656,95.724 87.949 C 94.977 87.241,94.125 86.288,93.832 85.831 C 93.539 85.374,93.260 85.000,93.213 85.000 C 93.167 85.000,93.261 85.206,93.423 85.458 M100.500 85.061 C 100.500 85.106,100.725 85.304,101.000 85.500 C 101.275 85.696,101.500 85.819,101.500 85.773 C 101.500 85.727,101.275 85.529,101.000 85.333 C 100.725 85.138,100.500 85.015,100.500 85.061 M118.284 86.175 C 118.337 86.583,118.406 86.948,118.440 86.986 C 118.576 87.142,118.483 85.898,118.342 85.675 C 118.243 85.519,118.223 85.696,118.284 86.175 M137.703 86.255 C 137.953 86.518,138.186 86.699,138.223 86.658 C 138.260 86.617,138.056 86.402,137.770 86.181 L 137.250 85.779 137.703 86.255 M174.167 86.417 C 174.478 86.737,174.770 87.000,174.815 87.000 C 174.861 87.000,174.644 86.737,174.333 86.417 C 174.022 86.096,173.730 85.833,173.685 85.833 C 173.639 85.833,173.856 86.096,174.167 86.417 M102.583 86.335 C 102.950 86.503,103.475 86.687,103.750 86.743 C 104.025 86.799,103.763 86.656,103.167 86.425 C 101.908 85.938,101.624 85.894,102.583 86.335 M110.917 86.440 C 110.367 86.661,110.142 86.797,110.417 86.742 C 110.935 86.637,112.378 86.024,112.083 86.033 C 111.992 86.036,111.467 86.219,110.917 86.440 M140.667 86.598 C 140.331 86.736,140.260 86.799,140.500 86.746 C 142.148 86.381,142.824 86.537,143.352 87.403 C 143.525 87.686,143.666 87.840,143.666 87.745 C 143.670 86.723,141.957 86.068,140.667 86.598 M106.214 87.123 C 106.745 87.157,107.570 87.156,108.048 87.123 C 108.526 87.089,108.092 87.062,107.083 87.062 C 106.075 87.063,105.684 87.090,106.214 87.123 M117.160 88.512 L 116.583 89.024 117.208 88.576 C 117.761 88.179,117.940 88.000,117.785 88.000 C 117.759 88.000,117.478 88.230,117.160 88.512 M131.833 88.235 C 131.833 88.806,133.990 90.848,134.570 90.827 C 134.669 90.823,134.525 90.700,134.250 90.552 C 133.434 90.116,132.956 89.687,132.379 88.875 C 132.079 88.453,131.833 88.165,131.833 88.235 M143.274 89.780 C 143.104 90.007,142.729 90.337,142.441 90.513 C 142.152 90.688,142.013 90.832,142.131 90.833 C 142.383 90.833,143.787 89.564,143.666 89.446 C 143.620 89.402,143.444 89.552,143.274 89.780 M52.500 89.793 C 52.500 89.893,52.296 90.224,52.048 90.529 C 51.675 90.985,51.663 91.024,51.980 90.752 C 52.429 90.365,52.735 89.846,52.597 89.708 C 52.544 89.655,52.500 89.693,52.500 89.793 M68.334 89.811 C 68.333 90.108,69.559 91.334,69.855 91.333 C 69.981 91.332,69.839 91.183,69.540 91.001 C 69.241 90.819,68.848 90.425,68.666 90.127 C 68.484 89.828,68.334 89.686,68.334 89.811 M114.500 90.167 C 113.996 90.433,113.642 90.654,113.714 90.659 C 113.891 90.669,115.500 89.848,115.500 89.747 C 115.500 89.636,115.523 89.626,114.500 90.167 M98.500 90.107 C 98.500 90.220,100.015 90.874,100.093 90.795 C 100.130 90.759,99.786 90.572,99.330 90.379 C 98.873 90.186,98.500 90.064,98.500 90.107 M141.971 92.385 C 140.259 93.044,138.813 93.629,138.759 93.684 C 138.678 93.767,139.261 95.578,139.446 95.819 C 139.556 95.961,146.160 93.409,146.164 93.223 C 146.170 92.823,145.446 91.167,145.269 91.177 C 145.167 91.182,143.683 91.726,141.971 92.385 M137.127 91.451 C 137.334 91.491,137.634 91.490,137.794 91.448 C 137.953 91.406,137.783 91.374,137.417 91.375 C 137.050 91.377,136.920 91.411,137.127 91.451 M152.792 91.618 C 152.998 91.657,153.335 91.657,153.542 91.618 C 153.748 91.578,153.579 91.545,153.167 91.545 C 152.754 91.545,152.585 91.578,152.792 91.618 M104.544 91.953 C 104.797 91.991,105.172 91.990,105.377 91.951 C 105.582 91.911,105.375 91.880,104.917 91.881 C 104.458 91.882,104.291 91.915,104.544 91.953 M108.544 91.953 C 108.797 91.991,109.172 91.990,109.377 91.951 C 109.582 91.911,109.375 91.880,108.917 91.881 C 108.458 91.882,108.291 91.915,108.544 91.953 M106.458 92.121 C 106.756 92.158,107.244 92.158,107.542 92.121 C 107.840 92.084,107.596 92.053,107.000 92.053 C 106.404 92.053,106.160 92.084,106.458 92.121 M45.500 94.926 C 44.262 95.043,43.009 95.146,42.715 95.153 L 42.179 95.167 42.280 96.292 C 42.335 96.910,42.407 97.448,42.441 97.487 C 42.499 97.555,49.536 97.031,49.589 96.955 C 49.604 96.934,49.581 96.410,49.539 95.792 L 49.461 94.667 48.606 94.689 C 48.135 94.702,46.737 94.808,45.500 94.926 M54.500 95.833 L 54.500 97.000 58.083 97.000 L 61.667 97.000 61.667 95.833 L 61.667 94.667 58.083 94.667 L 54.500 94.667 54.500 95.833 M66.612 96.096 C 66.480 97.513,66.098 97.336,70.094 97.711 C 73.993 98.078,73.716 98.150,73.835 96.733 C 73.942 95.456,74.259 95.599,70.750 95.336 C 69.375 95.232,67.905 95.106,67.484 95.056 L 66.718 94.964 66.612 96.096 M130.250 95.865 C 126.503 96.658,126.979 96.368,127.209 97.714 C 127.441 99.065,127.079 99.025,131.200 98.152 C 134.991 97.348,134.587 97.592,134.335 96.257 C 134.087 94.943,134.446 94.977,130.250 95.865 M33.797 96.339 C 29.622 97.128,30.014 96.930,30.234 98.138 C 30.472 99.446,30.407 99.414,32.199 99.095 C 34.301 98.721,37.208 98.162,37.435 98.089 C 37.602 98.034,37.337 95.922,37.144 95.766 C 37.110 95.740,35.604 95.997,33.797 96.339 M78.712 97.375 C 78.519 98.721,78.245 98.581,82.169 99.140 C 86.061 99.695,85.781 99.756,85.928 98.324 L 86.039 97.231 82.728 96.779 C 78.470 96.197,78.891 96.134,78.712 97.375 M118.750 97.674 C 117.100 97.840,115.584 97.981,115.381 97.988 C 115.041 97.999,114.956 99.956,115.279 100.326 C 115.375 100.434,122.227 99.817,122.369 99.687 C 122.600 99.477,122.269 97.423,122.000 97.397 C 121.862 97.383,120.400 97.508,118.750 97.674 M90.806 98.562 C 90.790 99.078,90.772 99.631,90.764 99.792 C 90.749 100.103,93.719 100.451,96.685 100.485 L 97.954 100.500 98.059 99.625 C 98.116 99.144,98.164 98.630,98.165 98.484 C 98.166 98.260,97.745 98.188,95.458 98.021 C 93.969 97.912,92.319 97.778,91.792 97.723 L 90.833 97.624 90.806 98.562 M21.500 99.464 C 19.804 100.063,18.386 100.579,18.348 100.609 C 18.219 100.713,18.896 102.701,19.085 102.774 C 19.189 102.814,20.509 102.399,22.018 101.852 C 23.528 101.305,24.967 100.806,25.216 100.744 C 25.853 100.584,25.869 100.503,25.481 99.355 C 25.060 98.109,25.352 98.101,21.500 99.464 M103.000 99.500 L 103.000 100.667 106.569 100.667 L 110.138 100.667 110.194 99.569 C 110.264 98.191,110.683 98.333,106.556 98.333 L 103.000 98.333 103.000 99.500 M10.500 104.437 C 8.896 105.405,7.520 106.257,7.443 106.330 C 7.297 106.469,7.447 106.817,8.109 107.870 L 8.498 108.490 11.541 106.644 C 13.214 105.629,14.610 104.774,14.642 104.743 C 14.689 104.699,13.496 102.652,13.435 102.673 C 13.425 102.676,12.104 103.470,10.500 104.437 M1.457 111.401 L -0.000 113.136 0.004 114.943 L 0.008 116.750 0.629 116.080 C 1.807 114.808,4.583 111.468,4.631 111.266 C 4.669 111.103,3.176 109.667,2.969 109.667 C 2.939 109.667,2.259 110.447,1.457 111.401 " stroke="none" fill="#9c9c9c" fill-rule="evenodd"></path></g></svg>