<svg id="svg" version="1.1" xmlns="http://www.w3.org/2000/svg" xmlns:xlink="http://www.w3.org/1999/xlink" width="400" height="152.20700152207002" viewBox="0, 0, 400,152.20700152207002"><g id="svgg">

<!-- X ROUGE -->
<path id="path1b" d="M152.128 63.773 C 151.190 64.045,150.163 65.450,150.173 66.450 C 150.181 67.359,150.163 67.335,154.973 72.831 C 157.384 75.585,159.333 77.945,159.303 78.074 C 159.274 78.203,157.337 80.460,155.000 83.090 C 150.377 88.290,150.348 88.327,150.339 89.133 C 150.321 90.872,152.790 92.134,154.491 91.255 C 154.751 91.120,156.712 88.983,158.848 86.505 C 160.983 84.027,162.789 82.000,162.860 82.000 C 162.932 82.000,163.461 82.549,164.037 83.221 C 170.574 90.845,171.420 91.667,172.736 91.667 C 173.454 91.667,175.034 91.041,175.009 90.767 C 175.004 90.711,175.150 90.386,175.333 90.044 C 176.094 88.624,176.049 88.545,171.478 83.318 C 169.519 81.077,167.567 78.833,167.140 78.330 L 166.363 77.415 170.611 72.583 C 175.590 66.918,175.360 67.223,175.375 66.248 C 175.396 64.833,174.374 63.924,172.755 63.920 C 171.200 63.915,171.548 63.586,166.049 70.250 C 164.537 72.083,163.246 73.603,163.182 73.628 C 163.117 73.653,161.269 71.609,159.074 69.087 C 154.575 63.917,153.765 63.298,152.128 63.773 " stroke="none" fill="#e34c4c" fill-rule="evenodd"></path>

</g></svg>