<svg id="svg" version="1.1" xmlns="http://www.w3.org/2000/svg" xmlns:xlink="http://www.w3.org/1999/xlink" width="400" height="152.20700152207002" viewBox="0, 0, 400,152.20700152207002"><g id="svgg">

<!-- GUITARE -->
<path id="path2" d="M266.167 23.445 C 262.451 23.940,261.000 25.383,261.000 28.583 C 261.000 31.209,262.456 33.167,264.410 33.167 L 265.000 33.167 265.000 34.103 L 265.000 35.038 264.125 34.937 C 253.681 33.726,251.437 34.202,249.461 38.047 C 249.262 38.434,248.772 39.265,248.371 39.895 C 247.971 40.525,247.579 41.208,247.501 41.413 C 246.991 42.755,245.654 44.242,244.167 45.123 C 243.030 45.796,237.513 47.339,236.274 47.331 C 236.077 47.330,234.117 47.697,231.917 48.148 C 229.717 48.598,227.279 49.082,226.500 49.222 C 225.721 49.362,223.808 49.749,222.250 50.083 C 220.692 50.416,218.929 50.760,218.333 50.847 C 217.737 50.935,215.675 51.338,213.750 51.743 C 211.825 52.148,209.896 52.526,209.464 52.582 C 209.032 52.639,207.119 53.020,205.214 53.429 C 203.309 53.839,201.237 54.248,200.610 54.338 C 199.982 54.429,197.882 54.831,195.943 55.233 C 194.003 55.634,191.367 56.161,190.083 56.403 C 188.800 56.646,186.887 57.034,185.833 57.267 C 184.779 57.499,183.429 57.755,182.833 57.836 C 182.237 57.916,180.154 58.324,178.204 58.741 C 176.254 59.158,174.504 59.500,174.315 59.500 C 174.126 59.500,172.009 59.908,169.610 60.406 C 163.238 61.731,158.390 62.699,157.250 62.874 C 156.700 62.959,155.387 63.205,154.333 63.421 C 153.279 63.638,151.292 64.040,149.917 64.316 C 148.542 64.591,145.842 65.132,143.917 65.518 C 141.992 65.904,140.004 66.287,139.500 66.370 C 138.625 66.513,137.784 66.677,132.083 67.819 C 130.708 68.095,127.633 68.703,125.250 69.170 C 122.867 69.637,119.417 70.324,117.583 70.698 C 115.750 71.071,113.650 71.482,112.917 71.612 C 112.183 71.741,109.746 72.214,107.500 72.662 C 105.254 73.110,102.217 73.710,100.750 73.996 C 99.283 74.282,97.408 74.666,96.583 74.849 C 95.758 75.032,94.564 75.253,93.929 75.340 C 93.294 75.427,91.156 75.833,89.179 76.241 C 81.077 77.915,77.032 78.720,76.128 78.838 C 75.602 78.907,73.540 79.300,71.545 79.712 C 68.070 80.430,63.740 81.295,60.000 82.019 C 59.038 82.206,56.413 82.721,54.167 83.165 C 51.921 83.609,49.258 84.125,48.250 84.313 C 47.242 84.500,45.517 84.850,44.417 85.089 C 43.317 85.328,41.967 85.600,41.417 85.693 C 40.867 85.787,38.579 86.227,36.333 86.672 C 34.087 87.117,31.613 87.595,30.833 87.733 C 30.054 87.872,28.367 88.217,27.083 88.499 C 25.800 88.782,24.075 89.121,23.250 89.253 C 22.425 89.385,20.137 89.824,18.167 90.229 C 16.196 90.635,13.721 91.127,12.667 91.322 C 11.612 91.518,9.925 91.861,8.917 92.086 C 7.908 92.310,6.333 92.612,5.417 92.756 C 4.021 92.976,2.268 93.323,0.375 93.754 L 0.000 93.840 0.000 112.170 C 0.000 128.709,0.026 130.500,0.261 130.500 C 0.405 130.500,1.287 130.306,2.220 130.069 C 3.153 129.832,4.329 129.571,4.833 129.490 C 5.337 129.408,7.325 128.969,9.250 128.513 C 11.175 128.058,14.400 127.309,16.417 126.850 C 20.917 125.825,27.187 124.389,30.750 123.567 C 32.217 123.229,34.092 122.812,34.917 122.641 C 35.742 122.470,37.992 121.961,39.917 121.509 C 41.842 121.058,44.767 120.372,46.417 119.985 C 48.067 119.598,49.942 119.186,50.583 119.069 C 51.225 118.951,53.293 118.475,55.179 118.011 C 57.065 117.547,58.752 117.166,58.929 117.166 C 59.105 117.165,60.746 116.790,62.574 116.332 C 64.402 115.875,66.039 115.500,66.211 115.500 C 66.384 115.500,68.204 115.087,70.257 114.583 C 72.310 114.079,74.110 113.667,74.257 113.667 C 74.403 113.667,76.074 113.298,77.970 112.847 C 79.866 112.396,81.942 111.919,82.583 111.788 C 83.225 111.656,85.100 111.231,86.750 110.844 C 90.747 109.905,96.375 108.617,98.333 108.193 C 99.204 108.005,101.079 107.579,102.500 107.247 C 103.921 106.915,106.696 106.276,108.667 105.828 C 118.142 103.671,120.674 103.092,123.917 102.336 C 125.842 101.888,127.679 101.480,128.000 101.428 C 128.321 101.377,130.196 100.956,132.167 100.493 C 134.137 100.030,137.362 99.280,139.333 98.827 C 141.304 98.374,144.267 97.691,145.917 97.309 C 147.567 96.927,149.442 96.508,150.083 96.377 C 150.725 96.245,152.792 95.770,154.677 95.319 C 156.562 94.869,158.229 94.500,158.381 94.500 C 158.533 94.500,160.328 94.088,162.370 93.584 C 164.412 93.081,166.213 92.668,166.372 92.668 C 166.531 92.667,168.186 92.292,170.051 91.833 C 171.915 91.375,173.571 91.000,173.729 91.000 C 173.888 91.000,175.687 90.587,177.728 90.083 C 179.768 89.579,181.583 89.167,181.761 89.167 C 181.938 89.167,183.621 88.796,185.500 88.343 C 187.379 87.889,189.779 87.329,190.833 87.098 C 191.887 86.866,193.762 86.443,195.000 86.158 C 196.237 85.873,198.900 85.264,200.917 84.805 C 202.933 84.346,206.308 83.564,208.417 83.067 C 210.525 82.570,212.374 82.164,212.526 82.165 C 212.677 82.166,214.301 81.792,216.134 81.333 C 217.967 80.875,219.599 80.500,219.761 80.500 C 219.923 80.500,221.824 80.082,223.986 79.571 C 226.148 79.061,229.529 78.276,231.500 77.828 C 233.471 77.380,236.583 76.661,238.417 76.229 C 240.250 75.798,242.125 75.375,242.583 75.289 C 243.042 75.204,244.954 74.769,246.833 74.322 C 258.236 71.613,267.169 73.893,275.353 81.601 C 277.386 83.516,278.263 83.917,280.423 83.917 L 282.096 83.917 283.895 83.042 C 284.885 82.560,285.782 82.166,285.889 82.164 C 285.996 82.163,286.899 81.788,287.896 81.331 C 288.893 80.874,289.777 80.500,289.860 80.500 C 289.944 80.500,290.928 80.097,292.048 79.604 C 293.167 79.112,295.021 78.317,296.167 77.837 C 298.983 76.659,302.232 75.281,304.250 74.409 C 305.167 74.013,306.592 73.412,307.417 73.073 C 310.540 71.792,311.953 71.194,313.083 70.676 C 313.725 70.382,314.587 70.026,315.000 69.884 C 315.412 69.742,316.448 69.297,317.302 68.896 C 318.155 68.495,318.924 68.167,319.011 68.167 C 319.098 68.167,319.988 67.797,320.990 67.345 C 326.265 64.965,329.461 65.407,331.758 68.833 C 332.557 70.026,335.347 72.685,336.480 73.333 C 336.720 73.471,336.955 73.633,337.001 73.695 C 337.282 74.063,339.538 75.129,341.250 75.702 C 349.553 78.481,359.673 74.108,363.806 65.956 C 365.579 62.457,365.875 57.201,364.502 53.589 C 361.809 46.505,357.673 43.250,349.542 41.814 C 348.419 41.616,347.500 41.393,347.500 41.318 C 347.500 40.232,347.884 39.500,348.453 39.500 C 353.122 39.500,354.240 32.102,349.870 30.120 C 348.579 29.535,344.750 29.590,343.477 30.213 C 341.563 31.149,340.917 32.273,340.917 34.667 C 340.917 37.405,341.738 38.625,344.037 39.301 L 345.000 39.583 345.000 40.442 L 345.000 41.302 344.375 41.229 C 342.346 40.995,333.743 40.333,332.719 40.333 C 332.049 40.333,331.500 40.300,331.500 40.258 C 331.500 39.569,331.909 38.500,332.172 38.500 C 335.512 38.500,337.766 34.321,336.161 31.107 C 334.348 27.477,327.201 27.529,325.321 31.185 C 324.360 33.054,324.762 35.749,326.205 37.103 C 326.993 37.842,327.355 38.028,328.792 38.431 C 329.338 38.584,329.035 40.001,328.458 39.990 C 326.257 39.952,315.752 38.890,315.767 38.708 C 315.776 38.594,315.795 38.200,315.808 37.833 C 315.833 37.173,315.840 37.167,316.485 37.167 C 320.313 37.167,322.218 31.458,319.299 28.734 C 317.650 27.195,313.918 26.861,311.367 28.023 C 307.726 29.681,308.109 35.845,311.921 36.937 L 313.000 37.246 313.000 37.956 L 313.000 38.667 312.042 38.666 C 311.515 38.665,309.846 38.557,308.333 38.424 C 306.821 38.292,304.608 38.104,303.417 38.007 C 302.225 37.910,300.870 37.786,300.406 37.733 L 299.562 37.636 299.726 36.735 L 299.889 35.833 300.578 35.833 C 304.770 35.833,306.064 28.800,302.254 26.723 C 300.488 25.760,296.542 25.829,294.889 26.850 C 293.082 27.967,292.400 30.486,293.170 33.203 C 293.495 34.349,294.811 35.419,296.292 35.742 C 296.812 35.855,296.833 35.891,296.833 36.669 L 296.833 37.479 296.292 37.404 C 295.158 37.246,289.775 36.833,288.867 36.835 C 288.344 36.835,286.954 36.748,285.778 36.642 L 283.639 36.447 283.745 35.849 C 283.935 34.774,284.001 34.667,284.470 34.667 C 288.093 34.674,290.092 28.795,287.341 26.223 C 284.463 23.534,278.210 24.473,277.261 27.737 C 276.307 31.020,277.542 33.774,280.292 34.494 C 280.991 34.677,281.000 34.689,281.000 35.423 C 281.000 35.832,280.944 36.170,280.875 36.174 C 280.806 36.177,277.801 35.934,274.198 35.632 L 267.645 35.084 267.748 34.500 C 267.944 33.389,267.956 33.377,268.964 33.255 C 271.884 32.902,273.532 29.208,272.157 26.100 C 271.403 24.395,268.545 23.128,266.167 23.445 " stroke="none" fill="#c4c4c4" fill-rule="evenodd"></path>

</g></svg>