<svg id="svg" version="1.1" xmlns="http://www.w3.org/2000/svg" xmlns:xlink="http://www.w3.org/1999/xlink" width="400" height="152.20700152207002" viewBox="0, 0, 400,152.20700152207002"><g id="svgg">

<path id="path3" d="M223.000 52.955 C 222.237 53.245,221.325 54.329,221.349 54.917 C 221.359 55.142,221.411 55.086,221.510 54.746 C 221.688 54.136,222.566 53.272,223.250 53.034 C 223.525 52.938,223.637 52.860,223.500 52.860 C 223.362 52.860,223.137 52.902,223.000 52.955 M225.499 53.099 C 225.819 53.238,226.268 53.516,226.498 53.717 L 226.914 54.083 226.583 53.691 C 226.223 53.266,225.480 52.829,225.133 52.840 C 225.014 52.843,225.179 52.960,225.499 53.099 M196.756 63.509 C 195.641 63.682,193.928 64.151,194.032 64.254 C 194.069 64.291,194.456 64.214,194.893 64.082 C 196.955 63.462,198.671 63.422,202.083 63.917 C 202.358 63.957,202.171 63.883,201.667 63.753 C 200.452 63.439,197.993 63.316,196.756 63.509 M248.083 63.442 C 246.662 63.743,245.496 64.052,245.557 64.113 C 245.597 64.153,246.077 64.070,246.623 63.928 C 247.169 63.787,248.133 63.604,248.766 63.523 C 249.677 63.406,249.760 63.375,249.167 63.374 C 248.754 63.373,248.267 63.404,248.083 63.442 M252.959 63.517 C 253.985 63.637,254.992 63.849,256.453 64.256 C 256.616 64.301,256.522 64.231,256.244 64.100 C 255.535 63.766,253.320 63.329,252.465 63.355 C 251.923 63.371,252.042 63.411,252.959 63.517 M287.750 63.421 C 287.658 63.455,287.257 63.566,286.858 63.669 C 286.459 63.771,286.164 63.886,286.201 63.923 C 286.238 63.960,286.565 63.908,286.926 63.807 C 287.288 63.707,287.958 63.568,288.417 63.499 C 289.218 63.380,289.225 63.375,288.583 63.367 C 288.217 63.363,287.842 63.387,287.750 63.421 M291.047 63.515 C 291.394 63.597,291.900 63.779,292.172 63.919 C 292.444 64.060,292.667 64.132,292.667 64.079 C 292.667 63.901,291.252 63.341,290.833 63.354 C 290.526 63.363,290.582 63.406,291.047 63.515 M309.583 63.506 C 309.268 63.591,309.484 63.606,310.167 63.548 C 310.762 63.497,311.281 63.428,311.319 63.395 C 311.446 63.283,310.093 63.370,309.583 63.506 M314.102 63.509 C 314.662 63.582,315.439 63.727,315.827 63.832 C 316.216 63.936,316.569 63.987,316.612 63.944 C 316.744 63.811,314.390 63.332,313.717 63.354 C 313.231 63.371,313.321 63.407,314.102 63.509 M347.833 63.503 C 347.574 63.588,347.795 63.604,348.417 63.547 C 348.967 63.496,349.448 63.427,349.486 63.394 C 349.621 63.277,348.245 63.368,347.833 63.503 M351.385 63.516 C 351.734 63.598,352.165 63.743,352.343 63.839 C 352.521 63.934,352.667 63.968,352.667 63.914 C 352.667 63.749,351.533 63.332,351.130 63.350 C 350.887 63.361,350.978 63.421,351.385 63.516 M346.417 63.911 C 345.773 64.205,346.072 64.210,346.833 63.917 C 347.154 63.793,347.304 63.690,347.167 63.687 C 347.029 63.684,346.692 63.785,346.417 63.911 M186.694 63.991 C 187.030 64.056,187.499 64.237,187.736 64.392 C 187.973 64.547,188.167 64.634,188.167 64.585 C 188.167 64.360,187.033 63.836,186.583 63.853 C 186.111 63.871,186.118 63.878,186.694 63.991 M277.294 63.951 C 277.501 63.991,277.801 63.990,277.960 63.948 C 278.120 63.906,277.950 63.874,277.583 63.875 C 277.217 63.877,277.086 63.911,277.294 63.951 M307.417 64.077 C 306.773 64.372,307.072 64.376,307.833 64.083 C 308.154 63.960,308.304 63.856,308.167 63.854 C 308.029 63.851,307.692 63.951,307.417 64.077 M337.542 63.948 C 337.702 63.990,337.965 63.990,338.125 63.948 C 338.285 63.906,338.154 63.872,337.833 63.872 C 337.512 63.872,337.381 63.906,337.542 63.948 M276.052 64.292 C 275.877 64.452,275.817 64.530,275.918 64.465 C 276.019 64.400,276.285 64.274,276.509 64.184 C 276.767 64.081,276.816 64.017,276.643 64.011 C 276.493 64.005,276.227 64.131,276.052 64.292 M278.500 64.119 C 278.637 64.170,278.900 64.281,279.083 64.365 C 279.411 64.516,279.411 64.514,279.093 64.259 C 278.915 64.117,278.653 64.006,278.510 64.013 C 278.285 64.025,278.284 64.039,278.500 64.119 M336.167 64.375 C 335.865 64.581,335.508 64.938,335.374 65.167 C 335.178 65.501,335.206 65.488,335.511 65.104 C 335.721 64.840,336.198 64.485,336.571 64.316 C 336.944 64.146,337.130 64.006,336.983 64.004 C 336.836 64.002,336.469 64.169,336.167 64.375 M353.312 64.547 C 354.016 65.400,354.050 66.634,353.396 67.597 C 353.156 67.951,353.086 68.136,353.241 68.008 C 354.214 67.200,354.292 65.462,353.396 64.539 L 352.791 63.917 353.312 64.547 M183.883 64.708 C 183.158 65.505,183.167 65.352,183.167 77.206 C 183.167 86.085,183.121 88.652,182.958 88.834 C 182.781 89.032,182.794 89.034,183.042 88.847 C 183.314 88.640,183.333 87.887,183.333 77.219 C 183.333 65.351,183.325 65.505,184.050 64.708 C 184.238 64.502,184.354 64.333,184.308 64.333 C 184.262 64.333,184.071 64.502,183.883 64.708 M339.500 64.385 C 339.500 64.414,339.744 64.658,340.042 64.927 L 340.583 65.417 340.094 64.875 C 339.638 64.370,339.500 64.257,339.500 64.385 M279.701 64.758 C 279.857 64.942,280.098 65.354,280.236 65.672 C 280.374 65.990,280.490 66.153,280.493 66.033 C 280.503 65.708,280.062 64.924,279.719 64.657 C 279.431 64.433,279.430 64.438,279.701 64.758 M188.592 65.240 C 188.754 65.487,188.930 66.138,188.985 66.688 L 189.083 67.688 189.667 67.053 C 190.237 66.431,190.238 66.428,189.708 66.907 L 189.167 67.396 189.167 66.776 C 189.167 66.094,188.814 65.111,188.500 64.916 C 188.389 64.848,188.431 64.994,188.592 65.240 M192.000 65.162 C 191.679 65.334,191.154 65.705,190.833 65.986 C 190.419 66.349,190.588 66.275,191.417 65.732 C 192.954 64.723,193.122 64.558,192.000 65.162 M304.720 65.331 C 304.246 65.604,303.813 65.898,303.758 65.987 C 303.669 66.131,305.416 65.139,305.633 64.923 C 305.822 64.734,305.552 64.855,304.720 65.331 M343.733 65.306 C 342.972 65.860,341.014 67.921,340.969 68.214 C 340.953 68.326,340.891 67.817,340.833 67.083 L 340.728 65.750 340.697 67.097 C 340.660 68.737,340.751 68.860,341.332 67.954 C 341.783 67.251,343.379 65.662,344.167 65.131 C 344.396 64.977,344.538 64.847,344.483 64.842 C 344.428 64.837,344.091 65.046,343.733 65.306 M205.167 65.066 C 205.167 65.106,205.506 65.328,205.921 65.560 C 206.335 65.791,206.630 65.909,206.576 65.821 C 206.468 65.646,205.167 64.949,205.167 65.066 M242.542 65.428 C 241.571 66.009,241.643 66.123,242.625 65.561 C 243.572 65.019,243.598 65.000,243.403 65.002 C 243.319 65.002,242.931 65.194,242.542 65.428 M259.250 65.583 C 261.274 66.835,263.124 68.627,264.112 70.292 C 264.584 71.088,264.806 71.252,264.431 70.528 C 263.505 68.737,260.124 65.590,258.569 65.071 C 258.393 65.012,258.700 65.243,259.250 65.583 M283.495 65.275 C 282.901 65.671,281.698 66.834,281.282 67.417 C 281.085 67.692,281.447 67.386,282.087 66.738 C 282.727 66.089,283.438 65.437,283.667 65.288 C 283.896 65.139,284.044 65.014,283.995 65.009 C 283.947 65.004,283.722 65.124,283.495 65.275 M319.167 65.048 C 319.167 65.086,319.555 65.358,320.030 65.654 C 320.505 65.949,320.810 66.089,320.707 65.965 C 320.510 65.728,319.167 64.928,319.167 65.048 M239.902 67.430 L 238.917 68.360 239.958 67.476 C 240.531 66.990,241.000 66.572,241.000 66.546 C 241.000 66.420,240.810 66.573,239.902 67.430 M208.417 67.500 C 208.868 67.958,209.275 68.333,209.321 68.333 C 209.367 68.333,209.035 67.958,208.583 67.500 C 208.132 67.042,207.725 66.667,207.679 66.667 C 207.633 66.667,207.965 67.042,208.417 67.500 M293.500 66.911 C 293.500 67.045,293.265 67.439,292.979 67.786 L 292.458 68.417 293.062 67.794 C 293.581 67.259,293.855 66.667,293.583 66.667 C 293.537 66.667,293.500 66.777,293.500 66.911 M301.910 67.542 L 301.083 68.417 301.958 67.590 C 302.440 67.135,302.833 66.741,302.833 66.715 C 302.833 66.590,302.679 66.729,301.910 67.542 M143.573 68.375 L 143.083 68.917 143.625 68.427 C 143.923 68.158,144.167 67.914,144.167 67.885 C 144.167 67.757,144.029 67.870,143.573 68.375 M311.795 68.287 C 312.094 68.325,312.544 68.324,312.795 68.286 C 313.045 68.248,312.800 68.217,312.250 68.218 C 311.700 68.219,311.495 68.250,311.795 68.287 M198.542 68.448 C 198.702 68.490,198.965 68.490,199.125 68.448 C 199.285 68.406,199.154 68.372,198.833 68.372 C 198.512 68.372,198.381 68.406,198.542 68.448 M209.752 69.083 C 210.420 70.011,210.604 70.183,210.232 69.530 C 210.059 69.226,209.772 68.851,209.594 68.697 C 209.407 68.534,209.473 68.696,209.752 69.083 M344.491 68.979 C 344.083 69.242,343.450 69.784,343.083 70.182 C 342.466 70.854,342.485 70.845,343.343 70.058 C 343.852 69.591,344.509 69.085,344.801 68.933 C 345.094 68.782,345.333 68.623,345.333 68.579 C 345.333 68.447,345.260 68.482,344.491 68.979 M142.333 69.000 C 141.990 69.110,141.975 69.136,142.250 69.148 C 142.433 69.155,142.696 69.089,142.833 69.000 C 143.125 68.811,142.923 68.811,142.333 69.000 M173.406 69.375 L 172.917 69.917 173.458 69.427 C 173.756 69.158,174.000 68.914,174.000 68.885 C 174.000 68.757,173.862 68.870,173.406 69.375 M201.014 68.897 C 201.184 69.052,202.833 69.830,202.833 69.756 C 202.833 69.662,201.242 68.833,201.061 68.833 C 200.997 68.833,200.976 68.862,201.014 68.897 M246.303 69.255 C 245.874 69.479,245.480 69.730,245.428 69.815 C 245.353 69.937,247.057 69.104,247.319 68.890 C 247.554 68.699,246.965 68.911,246.303 69.255 M255.489 69.419 C 256.079 69.737,256.754 70.168,256.989 70.378 C 257.805 71.106,258.091 71.246,257.339 70.550 C 256.643 69.905,254.896 68.828,254.560 68.837 C 254.481 68.839,254.899 69.101,255.489 69.419 M283.733 69.311 C 283.376 69.573,282.896 70.003,282.667 70.266 C 282.405 70.565,282.529 70.496,283.000 70.080 C 283.412 69.715,283.938 69.289,284.167 69.134 C 284.396 68.978,284.538 68.847,284.483 68.842 C 284.428 68.837,284.091 69.048,283.733 69.311 M307.636 69.255 C 307.207 69.479,306.814 69.730,306.762 69.815 C 306.686 69.937,308.390 69.104,308.653 68.890 C 308.887 68.699,308.298 68.911,307.636 69.255 M131.244 77.500 C 131.244 82.129,131.265 84.023,131.292 81.708 C 131.318 79.394,131.318 75.606,131.292 73.292 C 131.265 70.977,131.244 72.871,131.244 77.500 M137.077 77.083 C 137.077 81.483,137.099 83.259,137.125 81.030 C 137.151 78.801,137.151 75.201,137.125 73.030 C 137.099 70.859,137.077 72.683,137.077 77.083 M193.240 69.411 C 193.062 69.546,192.992 69.656,193.083 69.656 C 193.175 69.656,193.396 69.546,193.574 69.411 C 193.751 69.277,193.822 69.167,193.730 69.167 C 193.639 69.167,193.418 69.277,193.240 69.411 M237.496 70.283 C 237.223 70.713,237.000 71.138,237.000 71.227 C 237.000 71.430,236.999 71.431,237.636 70.375 C 238.291 69.289,238.175 69.212,237.496 70.283 M244.333 70.689 L 243.583 71.369 244.289 70.839 C 244.903 70.378,245.298 69.989,245.135 70.005 C 245.107 70.008,244.746 70.316,244.333 70.689 M305.899 70.542 C 305.388 71.095,304.790 71.884,305.110 71.583 C 305.466 71.248,306.537 70.000,306.469 70.000 C 306.430 70.000,306.174 70.244,305.899 70.542 M172.240 70.708 L 171.750 71.250 172.292 70.760 C 172.590 70.491,172.833 70.248,172.833 70.219 C 172.833 70.090,172.696 70.203,172.240 70.708 M191.217 71.046 C 190.759 71.530,190.296 72.111,190.188 72.338 L 189.990 72.750 190.285 72.333 C 190.448 72.104,190.948 71.523,191.398 71.042 C 191.847 70.560,192.178 70.167,192.132 70.167 C 192.086 70.167,191.674 70.562,191.217 71.046 M203.667 70.385 C 203.667 70.414,203.910 70.658,204.208 70.927 L 204.750 71.417 204.260 70.875 C 203.804 70.370,203.667 70.257,203.667 70.385 M299.167 71.375 C 298.902 71.948,298.642 72.642,298.590 72.917 C 298.538 73.192,298.636 73.041,298.808 72.581 C 298.979 72.122,299.282 71.428,299.480 71.040 C 299.678 70.651,299.797 70.333,299.745 70.333 C 299.692 70.333,299.432 70.802,299.167 71.375 M118.512 70.917 C 118.512 71.008,118.619 71.271,118.750 71.500 C 118.881 71.729,118.988 71.842,118.988 71.750 C 118.988 71.658,118.881 71.396,118.750 71.167 C 118.619 70.938,118.512 70.825,118.512 70.917 M282.043 71.042 C 281.807 71.339,281.475 72.000,281.561 72.000 C 281.601 72.000,281.789 71.737,281.978 71.417 C 282.322 70.834,282.354 70.649,282.043 71.042 M211.183 71.333 C 211.177 71.379,211.361 71.904,211.592 72.500 C 211.823 73.096,211.966 73.358,211.910 73.083 C 211.814 72.613,211.208 71.153,211.183 71.333 M243.116 72.042 C 242.664 72.653,242.359 73.180,242.610 72.917 C 242.919 72.592,243.682 71.500,243.600 71.500 C 243.554 71.500,243.337 71.744,243.116 72.042 M258.744 72.325 C 259.068 72.806,259.333 73.280,259.333 73.378 C 259.333 73.476,259.380 73.509,259.437 73.452 C 259.562 73.327,258.793 71.979,258.421 71.670 C 258.275 71.549,258.421 71.844,258.744 72.325 M113.116 72.248 C 113.268 72.568,113.423 72.800,113.459 72.763 C 113.535 72.687,113.029 71.667,112.915 71.667 C 112.873 71.667,112.963 71.928,113.116 72.248 M304.492 72.516 C 304.300 72.892,304.172 73.228,304.207 73.262 C 304.242 73.297,304.434 72.990,304.633 72.580 C 305.087 71.645,304.964 71.590,304.492 72.516 M341.527 72.424 C 341.248 73.037,341.301 73.167,341.603 72.610 C 341.744 72.350,341.828 72.106,341.790 72.068 C 341.752 72.030,341.634 72.190,341.527 72.424 M205.886 73.489 C 206.175 74.124,206.440 74.615,206.475 74.580 C 206.552 74.503,205.551 72.333,205.439 72.333 C 205.395 72.333,205.597 72.853,205.886 73.489 M265.523 73.167 C 265.523 73.304,265.588 73.567,265.667 73.750 C 265.757 73.960,265.810 73.991,265.810 73.833 C 265.810 73.696,265.745 73.433,265.667 73.250 C 265.576 73.040,265.523 73.009,265.523 73.167 M235.779 74.482 C 235.717 74.790,235.675 75.201,235.685 75.396 C 235.695 75.591,235.770 75.412,235.851 75.000 C 235.932 74.587,235.974 74.176,235.944 74.086 C 235.915 73.996,235.840 74.174,235.779 74.482 M168.740 74.708 L 168.250 75.250 168.792 74.760 C 169.090 74.491,169.333 74.248,169.333 74.219 C 169.333 74.090,169.196 74.203,168.740 74.708 M188.977 75.033 C 188.664 76.252,188.715 79.520,189.062 80.500 C 189.215 80.930,189.287 81.036,189.233 80.750 C 188.759 78.266,188.727 77.113,189.084 75.428 C 189.375 74.053,189.300 73.775,188.977 75.033 M265.833 74.573 C 265.833 74.797,265.895 75.018,265.970 75.065 C 266.045 75.111,266.074 74.928,266.034 74.658 C 265.947 74.062,265.833 74.015,265.833 74.573 M102.042 74.625 C 104.219 74.651,107.781 74.651,109.958 74.625 C 112.135 74.599,110.354 74.577,106.000 74.577 C 101.646 74.577,99.865 74.599,102.042 74.625 M280.542 75.250 C 280.544 75.617,280.578 75.747,280.618 75.540 C 280.658 75.332,280.656 75.032,280.615 74.873 C 280.573 74.714,280.540 74.883,280.542 75.250 M157.333 75.719 C 157.333 75.748,157.577 75.991,157.875 76.260 L 158.417 76.750 157.927 76.208 C 157.471 75.703,157.333 75.590,157.333 75.719 M235.487 76.375 C 235.437 76.733,235.463 76.937,235.547 76.853 C 235.627 76.773,235.666 76.492,235.633 76.229 C 235.578 75.788,235.566 75.800,235.487 76.375 M206.883 77.667 C 206.883 78.171,206.915 78.377,206.953 78.125 C 206.991 77.873,206.991 77.460,206.953 77.208 C 206.915 76.956,206.883 77.162,206.883 77.667 M91.385 77.917 C 91.386 78.467,91.417 78.672,91.454 78.372 C 91.491 78.072,91.490 77.622,91.452 77.372 C 91.414 77.122,91.384 77.367,91.385 77.917 M157.906 79.708 L 157.417 80.250 157.958 79.760 C 158.256 79.491,158.500 79.248,158.500 79.219 C 158.500 79.090,158.362 79.203,157.906 79.708 M167.833 79.219 C 167.833 79.248,168.077 79.491,168.375 79.760 L 168.917 80.250 168.427 79.708 C 167.971 79.203,167.833 79.090,167.833 79.219 M74.074 84.250 C 74.074 87.000,74.097 88.148,74.125 86.802 C 74.153 85.456,74.153 83.206,74.125 81.802 C 74.097 80.398,74.074 81.500,74.074 84.250 M91.590 80.611 C 91.636 81.085,91.786 81.760,91.923 82.111 C 92.112 82.596,92.145 82.629,92.061 82.250 C 92.000 81.975,91.850 81.300,91.728 80.750 L 91.506 79.750 91.590 80.611 M97.341 80.455 C 97.331 80.711,97.854 82.035,97.933 81.955 C 97.966 81.923,97.847 81.526,97.670 81.073 C 97.494 80.621,97.345 80.342,97.341 80.455 M68.240 85.083 C 68.240 87.558,68.263 88.594,68.291 87.385 C 68.320 86.176,68.320 84.151,68.291 82.885 C 68.263 81.619,68.240 82.608,68.240 85.083 M206.167 81.202 C 206.167 81.252,206.053 81.564,205.914 81.896 C 205.776 82.228,205.700 82.500,205.746 82.500 C 205.877 82.500,206.347 81.292,206.252 81.197 C 206.205 81.150,206.167 81.152,206.167 81.202 M170.333 82.052 C 170.333 82.081,170.577 82.325,170.875 82.594 L 171.417 83.083 170.927 82.542 C 170.471 82.037,170.333 81.923,170.333 82.052 M98.792 83.417 C 98.982 83.692,99.423 84.179,99.772 84.500 C 100.279 84.966,100.243 84.899,99.593 84.167 C 98.498 82.935,98.386 82.830,98.792 83.417 M52.736 86.583 C 52.736 88.233,52.761 88.886,52.791 88.033 C 52.821 87.181,52.821 85.831,52.791 85.033 C 52.760 84.236,52.735 84.933,52.736 86.583 M153.740 84.375 L 153.250 84.917 153.792 84.427 C 154.090 84.158,154.333 83.914,154.333 83.885 C 154.333 83.757,154.196 83.870,153.740 84.375 M191.083 84.318 C 191.431 84.721,192.667 85.743,192.667 85.629 C 192.667 85.593,192.235 85.197,191.708 84.749 C 191.181 84.300,190.900 84.107,191.083 84.318 M115.544 84.286 C 115.797 84.325,116.172 84.324,116.377 84.284 C 116.582 84.244,116.375 84.213,115.917 84.214 C 115.458 84.216,115.291 84.248,115.544 84.286 M114.392 84.499 C 114.195 84.578,113.988 84.718,113.931 84.810 C 113.846 84.947,114.748 84.589,114.986 84.391 C 115.111 84.287,114.758 84.351,114.392 84.499 M117.083 84.528 C 117.267 84.629,117.570 84.833,117.758 84.981 C 117.946 85.129,117.888 85.044,117.630 84.792 C 117.372 84.540,117.069 84.336,116.956 84.338 C 116.843 84.341,116.900 84.426,117.083 84.528 M46.899 86.917 C 46.899 88.200,46.926 88.703,46.957 88.034 C 46.989 87.366,46.989 86.316,46.957 85.701 C 46.925 85.086,46.899 85.633,46.899 86.917 M93.423 85.458 C 93.585 85.710,93.818 86.064,93.941 86.243 C 94.299 86.768,96.025 88.496,96.577 88.882 C 96.855 89.076,96.472 88.656,95.724 87.949 C 94.977 87.241,94.125 86.288,93.832 85.831 C 93.539 85.374,93.260 85.000,93.213 85.000 C 93.167 85.000,93.261 85.206,93.423 85.458 M100.500 85.061 C 100.500 85.106,100.725 85.304,101.000 85.500 C 101.275 85.696,101.500 85.819,101.500 85.773 C 101.500 85.727,101.275 85.529,101.000 85.333 C 100.725 85.138,100.500 85.015,100.500 85.061 M118.284 86.175 C 118.337 86.583,118.406 86.948,118.440 86.986 C 118.576 87.142,118.483 85.898,118.342 85.675 C 118.243 85.519,118.223 85.696,118.284 86.175 M137.703 86.255 C 137.953 86.518,138.186 86.699,138.223 86.658 C 138.260 86.617,138.056 86.402,137.770 86.181 L 137.250 85.779 137.703 86.255 M174.167 86.417 C 174.478 86.737,174.770 87.000,174.815 87.000 C 174.861 87.000,174.644 86.737,174.333 86.417 C 174.022 86.096,173.730 85.833,173.685 85.833 C 173.639 85.833,173.856 86.096,174.167 86.417 M102.583 86.335 C 102.950 86.503,103.475 86.687,103.750 86.743 C 104.025 86.799,103.763 86.656,103.167 86.425 C 101.908 85.938,101.624 85.894,102.583 86.335 M110.917 86.440 C 110.367 86.661,110.142 86.797,110.417 86.742 C 110.935 86.637,112.378 86.024,112.083 86.033 C 111.992 86.036,111.467 86.219,110.917 86.440 M140.667 86.598 C 140.331 86.736,140.260 86.799,140.500 86.746 C 142.148 86.381,142.824 86.537,143.352 87.403 C 143.525 87.686,143.666 87.840,143.666 87.745 C 143.670 86.723,141.957 86.068,140.667 86.598 M106.214 87.123 C 106.745 87.157,107.570 87.156,108.048 87.123 C 108.526 87.089,108.092 87.062,107.083 87.062 C 106.075 87.063,105.684 87.090,106.214 87.123 M117.160 88.512 L 116.583 89.024 117.208 88.576 C 117.761 88.179,117.940 88.000,117.785 88.000 C 117.759 88.000,117.478 88.230,117.160 88.512 M131.833 88.235 C 131.833 88.806,133.990 90.848,134.570 90.827 C 134.669 90.823,134.525 90.700,134.250 90.552 C 133.434 90.116,132.956 89.687,132.379 88.875 C 132.079 88.453,131.833 88.165,131.833 88.235 M143.274 89.780 C 143.104 90.007,142.729 90.337,142.441 90.513 C 142.152 90.688,142.013 90.832,142.131 90.833 C 142.383 90.833,143.787 89.564,143.666 89.446 C 143.620 89.402,143.444 89.552,143.274 89.780 M52.500 89.793 C 52.500 89.893,52.296 90.224,52.048 90.529 C 51.675 90.985,51.663 91.024,51.980 90.752 C 52.429 90.365,52.735 89.846,52.597 89.708 C 52.544 89.655,52.500 89.693,52.500 89.793 M68.334 89.811 C 68.333 90.108,69.559 91.334,69.855 91.333 C 69.981 91.332,69.839 91.183,69.540 91.001 C 69.241 90.819,68.848 90.425,68.666 90.127 C 68.484 89.828,68.334 89.686,68.334 89.811 M114.500 90.167 C 113.996 90.433,113.642 90.654,113.714 90.659 C 113.891 90.669,115.500 89.848,115.500 89.747 C 115.500 89.636,115.523 89.626,114.500 90.167 M98.500 90.107 C 98.500 90.220,100.015 90.874,100.093 90.795 C 100.130 90.759,99.786 90.572,99.330 90.379 C 98.873 90.186,98.500 90.064,98.500 90.107 M141.971 92.385 C 140.259 93.044,138.813 93.629,138.759 93.684 C 138.678 93.767,139.261 95.578,139.446 95.819 C 139.556 95.961,146.160 93.409,146.164 93.223 C 146.170 92.823,145.446 91.167,145.269 91.177 C 145.167 91.182,143.683 91.726,141.971 92.385 M137.127 91.451 C 137.334 91.491,137.634 91.490,137.794 91.448 C 137.953 91.406,137.783 91.374,137.417 91.375 C 137.050 91.377,136.920 91.411,137.127 91.451 M152.792 91.618 C 152.998 91.657,153.335 91.657,153.542 91.618 C 153.748 91.578,153.579 91.545,153.167 91.545 C 152.754 91.545,152.585 91.578,152.792 91.618 M104.544 91.953 C 104.797 91.991,105.172 91.990,105.377 91.951 C 105.582 91.911,105.375 91.880,104.917 91.881 C 104.458 91.882,104.291 91.915,104.544 91.953 M108.544 91.953 C 108.797 91.991,109.172 91.990,109.377 91.951 C 109.582 91.911,109.375 91.880,108.917 91.881 C 108.458 91.882,108.291 91.915,108.544 91.953 M106.458 92.121 C 106.756 92.158,107.244 92.158,107.542 92.121 C 107.840 92.084,107.596 92.053,107.000 92.053 C 106.404 92.053,106.160 92.084,106.458 92.121 M45.500 94.926 C 44.262 95.043,43.009 95.146,42.715 95.153 L 42.179 95.167 42.280 96.292 C 42.335 96.910,42.407 97.448,42.441 97.487 C 42.499 97.555,49.536 97.031,49.589 96.955 C 49.604 96.934,49.581 96.410,49.539 95.792 L 49.461 94.667 48.606 94.689 C 48.135 94.702,46.737 94.808,45.500 94.926 M54.500 95.833 L 54.500 97.000 58.083 97.000 L 61.667 97.000 61.667 95.833 L 61.667 94.667 58.083 94.667 L 54.500 94.667 54.500 95.833 M66.612 96.096 C 66.480 97.513,66.098 97.336,70.094 97.711 C 73.993 98.078,73.716 98.150,73.835 96.733 C 73.942 95.456,74.259 95.599,70.750 95.336 C 69.375 95.232,67.905 95.106,67.484 95.056 L 66.718 94.964 66.612 96.096 M130.250 95.865 C 126.503 96.658,126.979 96.368,127.209 97.714 C 127.441 99.065,127.079 99.025,131.200 98.152 C 134.991 97.348,134.587 97.592,134.335 96.257 C 134.087 94.943,134.446 94.977,130.250 95.865 M33.797 96.339 C 29.622 97.128,30.014 96.930,30.234 98.138 C 30.472 99.446,30.407 99.414,32.199 99.095 C 34.301 98.721,37.208 98.162,37.435 98.089 C 37.602 98.034,37.337 95.922,37.144 95.766 C 37.110 95.740,35.604 95.997,33.797 96.339 M78.712 97.375 C 78.519 98.721,78.245 98.581,82.169 99.140 C 86.061 99.695,85.781 99.756,85.928 98.324 L 86.039 97.231 82.728 96.779 C 78.470 96.197,78.891 96.134,78.712 97.375 M118.750 97.674 C 117.100 97.840,115.584 97.981,115.381 97.988 C 115.041 97.999,114.956 99.956,115.279 100.326 C 115.375 100.434,122.227 99.817,122.369 99.687 C 122.600 99.477,122.269 97.423,122.000 97.397 C 121.862 97.383,120.400 97.508,118.750 97.674 M90.806 98.562 C 90.790 99.078,90.772 99.631,90.764 99.792 C 90.749 100.103,93.719 100.451,96.685 100.485 L 97.954 100.500 98.059 99.625 C 98.116 99.144,98.164 98.630,98.165 98.484 C 98.166 98.260,97.745 98.188,95.458 98.021 C 93.969 97.912,92.319 97.778,91.792 97.723 L 90.833 97.624 90.806 98.562 M21.500 99.464 C 19.804 100.063,18.386 100.579,18.348 100.609 C 18.219 100.713,18.896 102.701,19.085 102.774 C 19.189 102.814,20.509 102.399,22.018 101.852 C 23.528 101.305,24.967 100.806,25.216 100.744 C 25.853 100.584,25.869 100.503,25.481 99.355 C 25.060 98.109,25.352 98.101,21.500 99.464 M103.000 99.500 L 103.000 100.667 106.569 100.667 L 110.138 100.667 110.194 99.569 C 110.264 98.191,110.683 98.333,106.556 98.333 L 103.000 98.333 103.000 99.500 M10.500 104.437 C 8.896 105.405,7.520 106.257,7.443 106.330 C 7.297 106.469,7.447 106.817,8.109 107.870 L 8.498 108.490 11.541 106.644 C 13.214 105.629,14.610 104.774,14.642 104.743 C 14.689 104.699,13.496 102.652,13.435 102.673 C 13.425 102.676,12.104 103.470,10.500 104.437 M1.457 111.401 L -0.000 113.136 0.004 114.943 L 0.008 116.750 0.629 116.080 C 1.807 114.808,4.583 111.468,4.631 111.266 C 4.669 111.103,3.176 109.667,2.969 109.667 C 2.939 109.667,2.259 110.447,1.457 111.401 " stroke="none" fill="#9c9c9c" fill-rule="evenodd"></path>

</g></svg>