<svg id="svg" version="1.1" xmlns="http://www.w3.org/2000/svg" xmlns:xlink="http://www.w3.org/1999/xlink" width="400" height="152.20700152207002" viewBox="0, 0, 400,152.20700152207002"><g id="svgg">

<!-- BALISE -->
<path id="path1a" d="M159.250 24.589 C 155.850 25.127,151.982 27.679,149.849 30.792 C 146.133 36.211,146.255 43.125,150.168 48.917 C 150.602 49.558,151.505 50.908,152.175 51.917 C 152.846 52.925,153.643 54.045,153.947 54.405 C 154.251 54.765,154.500 55.150,154.500 55.260 C 154.500 55.369,154.609 55.550,154.743 55.661 C 154.877 55.772,155.525 56.681,156.184 57.681 C 156.843 58.682,157.433 59.500,157.496 59.500 C 157.559 59.500,157.715 59.706,157.842 59.958 C 158.165 60.597,159.558 62.500,159.702 62.500 C 159.767 62.500,160.126 62.949,160.499 63.498 C 161.946 65.629,163.200 65.503,164.848 63.062 C 165.326 62.353,165.936 61.542,166.202 61.261 C 166.828 60.601,168.500 58.347,168.500 58.164 C 168.500 58.087,168.599 57.925,168.720 57.804 C 168.905 57.619,170.138 55.875,171.790 53.462 C 171.995 53.162,172.509 52.429,172.931 51.833 C 175.052 48.843,176.848 45.692,177.208 44.333 C 178.679 38.778,177.571 33.302,174.225 29.592 C 170.281 25.218,165.458 23.607,159.250 24.589 M163.862 33.576 C 168.474 34.777,170.185 40.296,167.000 43.696 C 164.705 46.146,161.550 46.440,158.821 44.460 C 158.283 44.069,157.841 43.698,157.838 43.633 C 157.836 43.569,157.599 43.170,157.313 42.746 C 154.393 38.419,158.794 32.256,163.862 33.576" stroke="none" fill="#e34c4c" fill-rule="evenodd"></path>

</g></svg>