<svg id="svg" version="1.1" xmlns="http://www.w3.org/2000/svg" xmlns:xlink="http://www.w3.org/1999/xlink" width="400" height="152.20700152207002" viewBox="0, 0, 400,152.20700152207002"><g id="svgg">

<!-- FRETXPLORER -->
<path id="path0" d="M54.250 52.906 C 49.107 53.920,46.833 56.793,46.833 62.277 L 46.833 64.333 44.824 64.333 C 41.784 64.333,40.669 65.009,40.667 66.850 C 40.666 68.680,41.955 69.500,44.834 69.500 L 46.783 69.500 46.873 79.393 C 46.954 88.399,46.989 89.342,47.257 89.908 C 48.145 91.779,51.088 91.960,52.264 90.215 C 52.670 89.612,52.833 85.268,52.833 75.056 L 52.833 69.500 55.875 69.496 C 60.185 69.491,61.275 68.917,61.135 66.726 C 61.005 64.689,60.254 64.342,55.958 64.337 L 52.833 64.333 52.834 62.542 C 52.836 58.349,54.470 57.052,58.651 57.924 C 60.991 58.413,62.333 57.531,62.333 55.506 C 62.333 53.376,58.354 52.096,54.250 52.906 M223.250 53.034 C 222.518 53.288,221.682 54.152,221.513 54.827 C 221.198 56.087,221.157 89.396,221.469 90.016 C 222.662 92.388,226.891 91.856,227.244 89.291 C 227.549 87.071,227.084 54.525,226.740 54.054 C 226.020 53.066,224.464 52.611,223.250 53.034 M132.500 57.800 C 131.449 58.311,131.167 59.173,131.167 61.869 L 131.167 64.167 129.303 64.167 C 126.412 64.167,125.481 64.736,125.364 66.575 C 125.239 68.533,126.318 69.167,129.773 69.167 L 131.333 69.167 131.333 77.632 C 131.333 87.005,131.367 87.370,132.381 88.883 C 134.347 91.817,141.062 92.403,143.228 89.829 C 144.018 88.890,143.713 87.291,142.637 86.735 C 142.116 86.465,141.880 86.471,140.250 86.798 C 138.750 87.099,137.489 86.505,137.167 85.346 C 137.069 84.991,137.001 81.601,137.001 76.958 L 137.000 69.167 139.343 69.167 C 143.256 69.167,144.470 68.501,144.285 66.459 C 144.112 64.545,143.347 64.169,139.625 64.168 L 137.167 64.167 137.167 61.942 C 137.167 58.989,136.905 58.243,135.691 57.736 C 134.920 57.414,133.224 57.447,132.500 57.800 M81.000 63.425 C 78.740 63.908,76.094 65.595,74.645 67.476 L 74.214 68.035 74.130 66.864 C 73.912 63.821,70.345 62.654,68.593 65.053 C 67.928 65.964,68.054 89.202,68.729 90.204 C 69.578 91.464,71.490 91.826,72.782 90.970 C 73.956 90.193,73.947 90.260,74.064 82.250 C 74.175 74.595,74.208 74.276,75.081 72.387 C 76.571 69.163,80.265 67.307,82.938 68.440 C 84.472 69.091,86.516 68.588,87.069 67.424 C 88.443 64.528,85.355 62.493,81.000 63.425 M103.750 63.274 C 102.744 63.431,100.729 64.049,99.964 64.436 C 99.532 64.655,99.097 64.833,98.997 64.833 C 98.831 64.833,97.122 65.910,96.630 66.324 C 96.513 66.423,96.201 66.665,95.938 66.863 C 92.062 69.776,90.382 76.769,92.186 82.488 C 94.844 90.917,105.842 94.533,114.913 89.961 C 118.304 88.252,119.327 86.047,117.348 84.713 C 116.237 83.965,115.130 84.176,113.021 85.539 C 107.147 89.334,98.045 86.118,97.227 79.958 L 97.121 79.167 107.269 79.166 C 118.241 79.165,118.277 79.162,119.218 78.248 C 120.212 77.283,120.162 74.879,119.095 72.333 C 118.845 71.737,118.582 71.025,118.510 70.750 C 118.214 69.620,116.311 67.309,114.833 66.284 C 114.421 65.998,113.950 65.640,113.786 65.490 C 113.397 65.130,110.522 63.915,109.250 63.573 C 108.266 63.308,104.754 63.117,103.750 63.274 M248.833 63.515 C 241.926 64.400,236.737 69.118,235.819 75.347 C 235.705 76.119,235.540 76.843,235.453 76.958 C 235.032 77.506,235.780 81.780,236.586 83.433 C 236.814 83.901,237.000 84.362,237.000 84.459 C 237.000 85.263,240.021 88.407,242.031 89.697 C 246.928 92.838,255.152 92.902,259.534 89.832 C 260.056 89.466,260.532 89.167,260.592 89.167 C 260.804 89.167,263.024 87.011,263.434 86.406 C 263.664 86.068,263.969 85.674,264.111 85.532 C 264.449 85.194,265.405 83.085,265.853 81.689 C 266.347 80.150,266.505 76.129,266.104 75.324 C 265.955 75.026,265.833 74.651,265.833 74.490 C 265.833 73.904,265.009 71.786,264.359 70.699 C 261.270 65.537,255.148 62.705,248.833 63.515 M288.362 63.495 C 285.334 63.968,282.749 65.549,281.021 67.983 L 280.500 68.717 280.500 67.477 C 280.500 64.096,276.699 62.599,275.085 65.346 C 274.746 65.924,274.294 87.114,274.579 89.089 C 274.889 91.235,277.298 92.241,279.363 91.087 C 280.718 90.330,280.695 90.494,280.566 82.273 C 280.467 75.956,280.486 74.957,280.722 74.046 C 281.878 69.584,285.635 67.137,289.497 68.332 C 291.889 69.073,293.583 68.149,293.583 66.105 C 293.583 64.131,291.370 63.024,288.362 63.495 M310.000 63.577 C 301.639 64.947,296.466 72.703,298.164 81.321 C 299.786 89.548,309.469 94.221,318.790 91.274 C 323.271 89.857,325.620 87.533,324.692 85.435 C 323.922 83.695,321.913 83.557,319.813 85.098 C 314.084 89.304,305.341 86.415,303.771 79.798 L 303.663 79.345 314.040 79.298 L 324.417 79.250 325.223 78.861 C 326.371 78.307,326.574 77.752,326.433 75.558 C 326.282 73.203,325.986 72.305,324.521 69.769 C 324.091 69.024,322.172 66.833,321.950 66.833 C 321.868 66.833,321.182 66.421,320.424 65.917 C 317.290 63.832,313.558 62.994,310.000 63.577 M348.588 63.509 C 345.625 63.970,342.795 65.704,341.337 67.954 C 340.751 68.857,340.667 68.744,340.667 67.061 C 340.667 64.047,337.193 62.792,335.484 65.189 C 334.814 66.127,334.503 88.075,335.132 89.914 C 335.833 91.959,339.480 92.132,340.524 90.169 C 340.812 89.628,340.833 89.072,340.833 82.075 C 340.833 75.650,340.872 74.429,341.102 73.655 C 342.341 69.480,346.055 67.180,349.727 68.314 C 352.202 69.078,353.831 68.179,353.833 66.047 C 353.834 64.091,351.650 63.034,348.588 63.509 M196.673 63.685 C 194.229 64.057,191.720 65.252,189.849 66.934 L 189.000 67.698 189.000 66.901 C 189.000 64.015,185.301 62.796,183.709 65.159 L 183.333 65.716 183.333 77.158 C 183.333 85.009,183.278 88.656,183.156 88.777 C 182.738 89.196,183.034 100.004,183.484 100.728 C 184.555 102.451,187.612 102.424,188.787 100.681 C 189.164 100.121,189.167 100.079,189.167 94.309 C 189.167 90.547,189.225 88.500,189.333 88.500 C 189.425 88.500,189.500 88.568,189.500 88.651 C 189.500 89.045,192.404 90.730,194.011 91.269 C 198.724 92.851,203.277 92.167,207.194 89.291 C 209.283 87.757,211.798 84.021,211.925 82.265 C 211.952 81.890,212.049 81.246,212.142 80.833 C 214.316 71.121,206.287 62.219,196.673 63.685 M253.374 68.489 C 257.802 69.622,260.245 72.931,260.203 77.739 C 260.119 87.193,248.133 90.502,242.772 82.550 C 241.840 81.168,241.490 79.017,241.647 75.642 C 241.869 70.872,248.020 67.120,253.374 68.489 M315.036 68.664 C 315.652 68.854,316.214 69.110,316.286 69.233 C 316.358 69.356,316.717 69.610,317.083 69.798 C 318.444 70.495,320.167 72.925,320.167 74.146 L 320.167 74.500 311.982 74.500 L 303.797 74.500 303.905 74.042 C 304.931 69.674,310.150 67.152,315.036 68.664 M107.833 68.580 C 109.288 68.965,111.082 69.958,111.898 70.831 C 112.304 71.264,112.748 71.662,112.885 71.715 C 113.192 71.833,113.833 73.498,113.833 74.179 L 113.833 74.679 105.764 74.631 C 101.325 74.605,97.644 74.533,97.583 74.472 C 97.522 74.411,97.628 74.008,97.819 73.576 C 98.010 73.144,98.167 72.703,98.167 72.595 C 98.167 72.487,98.577 71.901,99.078 71.294 C 101.027 68.930,104.771 67.770,107.833 68.580 M200.151 68.590 C 205.300 69.804,208.201 75.548,206.401 80.967 C 205.013 85.144,200.026 87.875,195.833 86.752 C 195.237 86.593,194.464 86.405,194.114 86.335 C 191.531 85.817,189.012 82.136,188.730 78.466 C 188.222 71.858,193.747 67.080,200.151 68.590 M152.128 63.773 C 151.190 64.045,150.163 65.450,150.173 66.450 C 150.181 67.359,150.163 67.335,154.973 72.831 C 157.384 75.585,159.333 77.945,159.303 78.074 C 159.274 78.203,157.337 80.460,155.000 83.090 C 150.377 88.290,150.348 88.327,150.339 89.133 C 150.321 90.872,152.790 92.134,154.491 91.255 C 154.751 91.120,156.712 88.983,158.848 86.505 C 160.983 84.027,162.789 82.000,162.860 82.000 C 162.932 82.000,163.461 82.549,164.037 83.221 C 170.574 90.845,171.420 91.667,172.736 91.667 C 173.454 91.667,175.034 91.041,175.009 90.767 C 175.004 90.711,175.150 90.386,175.333 90.044 C 176.094 88.624,176.049 88.545,171.478 83.318 C 169.519 81.077,167.567 78.833,167.140 78.330 L 166.363 77.415 170.611 72.583 C 175.590 66.918,175.360 67.223,175.375 66.248 C 175.396 64.833,174.374 63.924,172.755 63.920 C 171.200 63.915,171.548 63.586,166.049 70.250 C 164.537 72.083,163.246 73.603,163.182 73.628 C 163.117 73.653,161.269 71.609,159.074 69.087 C 154.575 63.917,153.765 63.298,152.128 63.773 " stroke="none" fill="#1c1c1c" fill-rule="evenodd"></path>

</g></svg>